<?xml version="1.0" encoding="iso-8859-1"?>
<!-- Generator: Adobe Illustrator 22.1.0, SVG Export Plug-In . SVG Version: 6.00 Build 0)  -->
<svg xmlns="http://www.w3.org/2000/svg" xmlns:xlink="http://www.w3.org/1999/xlink" version="1.1" id="Layer_1" x="0px" y="0px" viewBox="0 0 100 100" style="enable-background:new 0 0 100 100;" xml:space="preserve" width="100px" height="100px">
<g>
	<g>
		<g>
			<g>
				<g>
					<g>
						<circle style="fill:#F1BC19;" cx="77" cy="13" r="1"/>
					</g>
				</g>
				<g>
					<g>
						<circle style="fill:#E4E4F9;" cx="50" cy="50" r="37"/>
					</g>
				</g>
				<g>
					<g>
						<circle style="fill:#F1BC19;" cx="83" cy="15" r="4"/>
					</g>
				</g>
				<g>
					<g>
						<circle style="fill:#8889B9;" cx="87" cy="24" r="2"/>
					</g>
				</g>
				<g>
					<g>
						<circle style="fill:#FBCD59;" cx="81" cy="76" r="2"/>
					</g>
				</g>
				<g>
					<g>
						<circle style="fill:#FBCD59;" cx="15" cy="63" r="4"/>
					</g>
				</g>
				<g>
					<g>
						<circle style="fill:#8889B9;" cx="25" cy="87" r="2"/>
					</g>
				</g>
				<g>
					<g>
						<circle style="fill:#FFFFFF;" cx="18.5" cy="51.5" r="2.5"/>
					</g>
				</g>
				<g>
					<g>
						<circle style="fill:#FFFFFF;" cx="79.5" cy="33.5" r="1.5"/>
					</g>
				</g>
			</g>
		</g>
	</g>
</g>
<g>
	<g>
		<g>
			<polygon style="fill:#78CDD4;" points="46.75,47.333 70.25,47.333 70.25,27 46.75,30.411    "/>
		</g>
		<g>
			<path style="fill:#472B29;" d="M70.25,48.033h-23.5c-0.387,0-0.7-0.313-0.7-0.7V30.411c0-0.348,0.255-0.643,0.6-0.692l23.5-3.411     c0.203-0.026,0.405,0.031,0.559,0.163c0.154,0.133,0.242,0.326,0.242,0.529v20.333C70.95,47.72,70.637,48.033,70.25,48.033z      M47.45,46.633h22.1V27.809l-22.1,3.208V46.633z"/>
		</g>
	</g>
	<g>
		<g>
			<polygon style="fill:#78CDD4;" points="43.25,47.333 43.25,30.846 26.833,33.387 26.833,47.333    "/>
		</g>
		<g>
			<path style="fill:#472B29;" d="M43.25,48.033H26.833c-0.387,0-0.7-0.313-0.7-0.7V33.387c0-0.346,0.252-0.639,0.593-0.691     l16.417-2.54c0.2-0.032,0.407,0.026,0.563,0.16c0.155,0.133,0.245,0.327,0.245,0.531v16.486     C43.95,47.72,43.637,48.033,43.25,48.033z M27.534,46.633H42.55v-14.97l-15.016,2.323V46.633z"/>
		</g>
	</g>
	<g>
		<g>
			<polygon style="fill:#78CDD4;" points="43.25,50.833 26.833,50.833 26.833,64.666 43.25,67.185    "/>
		</g>
		<g>
			<path style="fill:#472B29;" d="M43.25,67.886c-0.035,0-0.071-0.003-0.106-0.008l-16.417-2.52     c-0.342-0.053-0.594-0.347-0.594-0.692V50.833c0-0.387,0.313-0.7,0.7-0.7H43.25c0.387,0,0.7,0.313,0.7,0.7v16.353     c0,0.204-0.089,0.398-0.244,0.531C43.578,67.826,43.416,67.886,43.25,67.886z M27.534,64.065L42.55,66.37V51.533H27.534V64.065z"/>
		</g>
	</g>
	<g>
		<g>
			<polygon style="fill:#78CDD4;" points="46.75,50.833 46.75,67.617 70.25,71 70.25,50.833    "/>
		</g>
		<g>
			<path style="fill:#472B29;" d="M70.25,71.7c-0.033,0-0.066-0.003-0.1-0.008l-23.5-3.383c-0.345-0.049-0.601-0.345-0.601-0.692     V50.833c0-0.387,0.313-0.7,0.7-0.7h23.5c0.387,0,0.7,0.313,0.7,0.7V71c0,0.203-0.088,0.396-0.242,0.529     C70.58,71.64,70.417,71.7,70.25,71.7z M47.45,67.011l22.1,3.182V51.533h-22.1V67.011z"/>
		</g>
	</g>
</g>
<g>
	<g>
		<path style="fill:#472B29;" d="M67.5,45c-0.276,0-0.5-0.224-0.5-0.5v-7c0-0.276,0.224-0.5,0.5-0.5s0.5,0.224,0.5,0.5v7    C68,44.776,67.776,45,67.5,45z"/>
	</g>
</g>
<g>
	<g>
		<path style="fill:#472B29;" d="M40.5,61c-0.276,0-0.5-0.224-0.5-0.5v-7c0-0.276,0.224-0.5,0.5-0.5s0.5,0.224,0.5,0.5v7    C41,60.776,40.776,61,40.5,61z"/>
	</g>
</g>
<g>
	<g>
		<path style="fill:#472B29;" d="M29.5,40c-0.276,0-0.5-0.224-0.5-0.5v-4c0-0.276,0.224-0.5,0.5-0.5s0.5,0.224,0.5,0.5v4    C30,39.776,29.776,40,29.5,40z"/>
	</g>
</g>
<g>
	<g>
		<path style="fill:#472B29;" d="M29.5,45c-0.276,0-0.5-0.224-0.5-0.5v-3c0-0.276,0.224-0.5,0.5-0.5s0.5,0.224,0.5,0.5v3    C30,44.776,29.776,45,29.5,45z"/>
	</g>
</g>
<g>
	<g>
		<path style="fill:#472B29;" d="M29.5,57c-0.276,0-0.5-0.224-0.5-0.5v-3c0-0.276,0.224-0.5,0.5-0.5s0.5,0.224,0.5,0.5v3    C30,56.776,29.776,57,29.5,57z"/>
	</g>
</g>
<g>
	<g>
		<path style="fill:#472B29;" d="M40.5,65c-0.276,0-0.5-0.224-0.5-0.5v-2c0-0.276,0.224-0.5,0.5-0.5s0.5,0.224,0.5,0.5v2    C41,64.776,40.776,65,40.5,65z"/>
	</g>
</g>
<g>
	<g>
		<path style="fill:#472B29;" d="M49.5,61c-0.276,0-0.5-0.224-0.5-0.5v-7c0-0.276,0.224-0.5,0.5-0.5s0.5,0.224,0.5,0.5v7    C50,60.776,49.776,61,49.5,61z"/>
	</g>
</g>
<g>
	<g>
		<path style="fill:#472B29;" d="M59.5,32c-0.249,0-0.464-0.185-0.496-0.438c-0.034-0.274,0.16-0.524,0.434-0.559l8-1    c0.275-0.041,0.524,0.16,0.558,0.434c0.034,0.274-0.16,0.524-0.434,0.559l-8,1C59.541,31.999,59.52,32,59.5,32z"/>
	</g>
</g>
<g>
	<g>
		<path style="fill:#472B29;" d="M36.5,45h-7c-0.276,0-0.5-0.224-0.5-0.5s0.224-0.5,0.5-0.5h7c0.276,0,0.5,0.224,0.5,0.5    S36.776,45,36.5,45z"/>
	</g>
</g>
<g>
	<g>
		<path style="fill:#472B29;" d="M36.5,54h-7c-0.276,0-0.5-0.224-0.5-0.5s0.224-0.5,0.5-0.5h7c0.276,0,0.5,0.224,0.5,0.5    S36.776,54,36.5,54z"/>
	</g>
</g>
<g>
	<g>
		<path style="fill:#472B29;" d="M55.167,54.167c-0.005,0-0.01,0-0.015,0L49.485,54c-0.276-0.009-0.493-0.238-0.485-0.515    c0.009-0.276,0.268-0.495,0.515-0.485l5.667,0.167c0.276,0.009,0.493,0.238,0.485,0.515    C55.658,53.953,55.436,54.167,55.167,54.167z"/>
	</g>
</g>
<g>
	<g>
		<path style="fill:#472B29;" d="M63.584,54.5c-0.005,0-0.01,0-0.015,0l-5.667-0.167c-0.276-0.009-0.493-0.238-0.485-0.515    c0.008-0.277,0.283-0.479,0.515-0.485l5.667,0.167c0.276,0.009,0.493,0.238,0.485,0.515C64.075,54.286,63.853,54.5,63.584,54.5z"/>
	</g>
</g>
<g>
	<g>
		<path style="fill:#472B29;" d="M67.5,35c-0.276,0-0.5-0.224-0.5-0.5v-4c0-0.276,0.224-0.5,0.5-0.5s0.5,0.224,0.5,0.5v4    C68,34.776,67.776,35,67.5,35z"/>
	</g>
</g>
</svg>
