<?xml version="1.0" encoding="iso-8859-1"?>
<!-- Generator: Adobe Illustrator 22.1.0, SVG Export Plug-In . SVG Version: 6.00 Build 0)  -->
<svg xmlns="http://www.w3.org/2000/svg" xmlns:xlink="http://www.w3.org/1999/xlink" version="1.1" id="Layer_1" x="0px" y="0px" viewBox="0 0 100 100" style="enable-background:new 0 0 100 100;" xml:space="preserve" width="100px" height="100px">
<g>
	<g>
		<g>
			<g>
				<circle style="fill:#F1BC19;" cx="77" cy="13" r="1"/>
			</g>
			<g>
				<circle style="fill:#E6EDB7;" cx="50" cy="50" r="37"/>
			</g>
			<g>
				<circle style="fill:#F1BC19;" cx="83" cy="15" r="4"/>
			</g>
			<g>
				<circle style="fill:#88AE45;" cx="87" cy="24" r="2"/>
			</g>
			<g>
				<circle style="fill:#FBCD59;" cx="81" cy="76" r="2"/>
			</g>
			<g>
				<circle style="fill:#FBCD59;" cx="15" cy="63" r="4"/>
			</g>
			<g>
				<circle style="fill:#88AE45;" cx="25" cy="87" r="2"/>
			</g>
			<g>
				<circle style="fill:#FFFFFF;" cx="18.5" cy="51.5" r="2.5"/>
			</g>
			<g>
				<circle style="fill:#FFFFFF;" cx="79.5" cy="33.5" r="1.5"/>
			</g>
		</g>
	</g>
</g>
<g>
	<g>
		<g>
			<path style="fill:#BEBACB;" d="M50.801,31.282c-0.173,0-0.344-0.078-0.469-0.216c-0.074-0.081-0.194-0.255-0.17-0.503     c0.595-6.197,4.487-9.087,7.931-9.725c0.042-0.008,0.083-0.012,0.124-0.012c0.178,0,0.345,0.073,0.471,0.205     c0.128,0.137,0.193,0.317,0.182,0.51c-0.205,3.547-1.252,8.415-7.953,9.729C50.878,31.278,50.839,31.282,50.801,31.282     L50.801,31.282z"/>
		</g>
		<g>
			<path style="fill:#472B29;" d="M58.168,21.537c-0.315,5.292-2.575,8.082-7.303,9.032C51.439,24.833,54.999,22.146,58.168,21.537      M58.216,20.127c-0.082,0-0.166,0.008-0.251,0.023c-3.888,0.719-7.891,3.999-8.5,10.346c-0.077,0.802,0.571,1.485,1.336,1.485     c0.082,0,0.166-0.008,0.25-0.024c6.847-1.343,8.277-6.224,8.517-10.376C59.614,20.776,58.981,20.127,58.216,20.127L58.216,20.127     z"/>
		</g>
	</g>
	<g>
		<g>
			<path style="fill:#BEBACB;" d="M58.632,71.3c-1.335,0-2.546-0.514-3.828-1.057c-1.381-0.585-2.809-1.19-4.489-1.19     c-1.625,0-3,0.607-4.331,1.194C44.758,70.789,43.6,71.3,42.329,71.3c-1.713,0-3.447-0.946-5.459-2.978     c-5.239-5.292-7.91-12.507-8.164-22.058c-0.129-4.862,1.874-7.968,3.577-9.717c2.62-2.691,5.843-3.646,7.807-3.646     c2.298,0,3.883,0.742,5.416,1.46c1.425,0.667,2.898,1.356,4.809,1.356c1.978,0,3.507-0.688,4.986-1.353     c1.601-0.72,3.257-1.464,5.662-1.464c2.527,0,5.588,1.308,7.798,3.332c0.203,0.186,0.311,0.45,0.294,0.725     c-0.009,0.149-0.064,0.429-0.338,0.626c-3.231,2.332-5.16,6.11-5.16,10.106c0,4.489,2.413,8.646,6.297,10.847     c0.389,0.22,0.549,0.704,0.373,1.126c-1.402,3.343-3.326,6.171-5.879,8.647C62.246,70.351,60.43,71.3,58.632,71.3L58.632,71.3z"/>
		</g>
		<g>
			<path style="fill:#472B29;" d="M60.963,33.602c1.793,0,4.788,0.825,7.325,3.148c0.067,0.062,0.071,0.138,0.069,0.168     c-0.004,0.067-0.035,0.09-0.049,0.099c-3.412,2.463-5.449,6.454-5.449,10.674c0,4.741,2.549,9.131,6.652,11.456     c0.083,0.047,0.113,0.148,0.072,0.246c-1.365,3.253-3.236,6.006-5.722,8.416c-2.579,2.501-4.219,2.791-5.228,2.791     c-1.193,0-2.34-0.486-3.555-1.001c-1.378-0.584-2.939-1.246-4.762-1.246c-1.773,0-3.282,0.666-4.614,1.254     c-1.157,0.511-2.249,0.993-3.373,0.993c-0.952,0-2.503-0.287-4.962-2.771c-5.108-5.159-7.712-12.219-7.961-21.583     c-0.123-4.618,1.77-7.558,3.38-9.211c2.468-2.534,5.477-3.434,7.305-3.434c2.142,0,3.588,0.677,5.119,1.394     c1.494,0.699,3.039,1.423,5.106,1.423c2.128,0,3.727-0.719,5.273-1.414C57.193,34.283,58.708,33.602,60.963,33.602      M60.963,32.202c-4.84,0-6.776,2.816-10.648,2.816h0c-3.718,0-5.577-2.816-10.225-2.816s-12.339,4.473-12.084,14.082     c0.25,9.385,2.789,16.898,8.366,22.531C38.769,71.235,40.662,72,42.328,72c2.857,0,5.051-2.247,7.986-2.247h0     c3.057,0,5.342,2.247,8.317,2.247c1.736,0,3.706-0.764,6.203-3.186c2.648-2.568,4.633-5.53,6.038-8.88     c0.315-0.75,0.03-1.607-0.673-2.006c-3.545-2.009-5.942-5.84-5.942-10.238c0-3.936,1.923-7.412,4.869-9.539     c0.803-0.58,0.838-1.765,0.106-2.435C66.649,33.351,63.406,32.202,60.963,32.202L60.963,32.202z"/>
		</g>
	</g>
	<g>
		<path style="fill:#D6D3C5;" d="M30.451,51.489c3.808-4.765,6.664-3.812,18.088-4.765c0.787-0.066,1.557-0.159,2.309-0.276    c5.063-0.787,9.285-2.642,12.252-4.306c0.507-0.284,0.977-0.563,1.408-0.829c0.928-1.682,2.205-3.172,3.797-4.322    c0.013-0.009,0.031-0.027,0.036-0.071c-0.008-0.035-0.019-0.069-0.03-0.103c-0.009-0.014-0.013-0.028-0.028-0.042    c-2.535-2.322-5.528-3.146-7.321-3.146c-2.254,0-3.77,0.681-5.374,1.403c-1.546,0.695-3.145,1.414-5.274,1.414    c-2.067,0-3.612-0.723-5.107-1.423c-1.531-0.717-2.976-1.394-5.118-1.394c-1.842,0-4.871,0.91-7.342,3.473    c-1.586,1.645-3.451,4.567-3.329,9.143c0.054,2.024,0.225,3.933,0.5,5.745C30.092,51.875,30.269,51.716,30.451,51.489z"/>
	</g>
	<g>
		<path style="fill:#472B29;" d="M60.162,43.881c-0.095,0-0.186-0.055-0.228-0.146c-0.057-0.126-0.001-0.274,0.124-0.331    c0.668-0.304,1.338-0.631,1.993-0.975c0.121-0.063,0.274-0.017,0.337,0.105c0.064,0.122,0.017,0.273-0.105,0.338    c-0.663,0.348-1.342,0.68-2.019,0.986C60.232,43.874,60.197,43.881,60.162,43.881z"/>
	</g>
	<g>
		<path style="fill:#472B29;" d="M52.991,46.222c-0.116,0-0.22-0.081-0.244-0.199c-0.028-0.135,0.059-0.268,0.194-0.296    c0.457-0.095,0.906-0.197,1.348-0.308c1.23-0.309,2.474-0.692,3.694-1.142c0.129-0.047,0.273,0.019,0.321,0.148    c0.048,0.129-0.019,0.272-0.148,0.32c-1.238,0.456-2.498,0.846-3.746,1.157c-0.448,0.112-0.904,0.217-1.368,0.313    C53.025,46.22,53.008,46.222,52.991,46.222z"/>
	</g>
	<g>
		<path style="fill:#472B29;" d="M29.595,52.407c-0.105,0-0.203-0.066-0.237-0.172c-0.043-0.131,0.028-0.272,0.159-0.315    c0.243-0.08,0.492-0.278,0.739-0.588c1.106-1.383,2.115-2.275,3.272-2.895c2.145-1.147,4.778-1.304,9.142-1.562    c1.682-0.1,3.589-0.213,5.849-0.401c0.711-0.06,1.436-0.145,2.154-0.252c0.137-0.016,0.264,0.073,0.284,0.21    s-0.073,0.264-0.21,0.284c-0.729,0.109-1.465,0.196-2.187,0.256c-2.266,0.189-4.176,0.303-5.861,0.402    c-4.294,0.254-6.887,0.407-8.935,1.504c-1.094,0.585-2.056,1.438-3.117,2.766c-0.313,0.392-0.631,0.637-0.973,0.75    C29.647,52.403,29.621,52.407,29.595,52.407z"/>
	</g>
	<g>
		<path style="fill:#472B29;" d="M39.618,64.853c-0.153,0-0.304-0.069-0.402-0.202c-2.703-3.64-4.836-8.755-5.706-13.684    c-0.048-0.271,0.133-0.531,0.405-0.579c0.271-0.052,0.531,0.133,0.579,0.405c0.845,4.783,2.91,9.74,5.524,13.262    c0.165,0.222,0.119,0.534-0.103,0.699C39.826,64.82,39.721,64.853,39.618,64.853z"/>
	</g>
	<g>
		<path style="fill:#472B29;" d="M33.567,47.104c-0.271,0-0.493-0.216-0.5-0.488c-0.005-0.205-0.007-0.411-0.007-0.616    c0-0.842,0.083-1.65,0.245-2.404c0.14-0.644,0.34-1.258,0.597-1.827c0.158-0.352,0.342-0.694,0.546-1.017    c0.147-0.234,0.456-0.302,0.69-0.155c0.233,0.148,0.303,0.457,0.155,0.69c-0.179,0.282-0.34,0.583-0.479,0.893    c-0.228,0.505-0.407,1.053-0.531,1.627c-0.148,0.685-0.223,1.423-0.223,2.193c0,0.197,0.002,0.396,0.007,0.593    c0.006,0.275-0.212,0.505-0.488,0.512C33.575,47.104,33.571,47.104,33.567,47.104z"/>
	</g>
	<g>
		<path style="fill:#472B29;" d="M36.813,39.401c-0.153,0-0.304-0.07-0.402-0.202c-0.165-0.223-0.118-0.535,0.104-0.7    c0.855-0.633,1.82-1.081,2.868-1.333c0.267-0.058,0.539,0.102,0.603,0.369c0.064,0.269-0.101,0.539-0.37,0.604    c-0.917,0.22-1.76,0.612-2.506,1.165C37.021,39.369,36.916,39.401,36.813,39.401z"/>
	</g>
</g>
</svg>
