<?xml version="1.0" encoding="iso-8859-1"?>
<!-- Generator: Adobe Illustrator 22.1.0, SVG Export Plug-In . SVG Version: 6.00 Build 0)  -->
<svg xmlns="http://www.w3.org/2000/svg" xmlns:xlink="http://www.w3.org/1999/xlink" version="1.1" id="Layer_1" x="0px" y="0px" viewBox="0 0 100 100" style="enable-background:new 0 0 100 100;" xml:space="preserve" width="100px" height="100px">
<g>
	<g>
		<g>
			<circle style="fill:#EE3E54;" cx="13" cy="29" r="2"/>
		</g>
		<g>
			<circle style="fill:#F1BC19;" cx="77" cy="13" r="1"/>
		</g>
		<g>
			<circle style="fill:#FCE0A2;" cx="50" cy="50" r="37"/>
		</g>
		<g>
			<circle style="fill:#F1BC19;" cx="83" cy="15" r="4"/>
		</g>
		<g>
			<circle style="fill:#EE3E54;" cx="87" cy="24" r="2"/>
		</g>
		<g>
			<circle style="fill:#FBCD59;" cx="81" cy="76" r="2"/>
		</g>
		<g>
			<circle style="fill:#FBCD59;" cx="15" cy="63" r="4"/>
		</g>
		<g>
			<circle style="fill:#EE3E54;" cx="25" cy="87" r="2"/>
		</g>
		<g>
			<circle style="fill:#FFFFFF;" cx="18.5" cy="53.5" r="2.5"/>
		</g>
		<g>
			<circle style="fill:#F1BC19;" cx="21" cy="67" r="1"/>
		</g>
		<g>
			<circle style="fill:#FFFFFF;" cx="80" cy="34" r="1"/>
		</g>
	</g>
</g>
<g>
	<circle style="fill:#78A2D2;" cx="50" cy="49.875" r="24.25"/>
</g>
<g>
	<path style="fill:#472B29;" d="M68.164,59.445c-0.073,0-0.148-0.017-0.219-0.051c-0.248-0.121-0.351-0.42-0.23-0.668   c0.132-0.271,0.256-0.543,0.375-0.818c0.46-1.068,0.826-2.186,1.087-3.318c0.062-0.27,0.333-0.437,0.6-0.375   c0.269,0.063,0.437,0.331,0.375,0.6c-0.275,1.191-0.66,2.366-1.144,3.49c-0.125,0.289-0.256,0.575-0.395,0.859   C68.527,59.342,68.349,59.445,68.164,59.445z"/>
</g>
<g>
	<path style="fill:#472B29;" d="M70.264,52.336c-0.015,0-0.03-0.001-0.045-0.002c-0.275-0.024-0.478-0.268-0.453-0.543   c0.039-0.429,0.063-0.857,0.074-1.286c0.067-2.666-0.39-5.273-1.358-7.752c-0.101-0.257,0.027-0.547,0.284-0.647   c0.259-0.104,0.547,0.025,0.648,0.284c1.017,2.602,1.497,5.341,1.426,8.14c-0.011,0.451-0.037,0.901-0.078,1.352   C70.738,52.141,70.52,52.336,70.264,52.336z"/>
</g>
<g>
	<path style="fill:#472B29;" d="M35.107,36.532c-0.123,0-0.245-0.045-0.341-0.135c-0.202-0.188-0.212-0.505-0.024-0.706   c3.399-3.642,7.999-5.94,12.95-6.475c0.277-0.023,0.521,0.17,0.551,0.443c0.03,0.274-0.169,0.521-0.443,0.551   c-4.713,0.509-9.091,2.697-12.327,6.162C35.375,36.479,35.241,36.532,35.107,36.532z"/>
</g>
<g>
	<path style="fill:#472B29;" d="M36.138,65.284c-0.123,0-0.245-0.045-0.341-0.135c-7.104-6.632-8.721-17.138-3.934-25.548   c0.137-0.242,0.442-0.325,0.682-0.188c0.24,0.137,0.324,0.442,0.187,0.682c-4.557,8.006-3.016,18.008,3.748,24.323   c0.202,0.188,0.212,0.505,0.024,0.706C36.405,65.23,36.271,65.284,36.138,65.284z"/>
</g>
<g>
	<path style="fill:#472B29;" d="M58.889,68.769c-0.186,0-0.365-0.104-0.451-0.283c-0.12-0.248-0.016-0.547,0.233-0.667   c2.202-1.062,4.172-2.515,5.856-4.316c0.679-0.729,1.307-1.511,1.866-2.325c0.156-0.227,0.469-0.285,0.695-0.129   c0.228,0.156,0.286,0.467,0.129,0.695c-0.587,0.855-1.246,1.677-1.959,2.44c-1.769,1.894-3.838,3.42-6.152,4.535   C59.036,68.753,58.962,68.769,58.889,68.769z"/>
</g>
<g>
	<path style="fill:#FFFFFF;" d="M46.458,73.5v-17h-6.021v-5.978h6.021l0-6.216c-0.137-5.577,4.159-11.002,14.104-7.994l-0.021,5.271   l-3.508-0.022c-2.699,0-3.628,0.863-3.628,2.745v6.216h7.157L59.304,56.5h-5.899v17"/>
	<path style="fill:#472B29;" d="M53.905,73.5h-1V56h5.993l1.048-4.978h-7.041v-6.716c0-2.244,1.273-3.245,4.128-3.245l3.01,0.019   l0.018-4.394c-4.274-1.22-7.779-0.913-10.154,0.896c-1.942,1.479-3.018,3.926-2.949,6.712v6.729h-6.021V56h6.021v17.5h-1V57h-6.021   v-6.978h6.021v-5.716c-0.076-3.099,1.142-5.845,3.343-7.521c1.888-1.438,5.398-2.768,11.406-0.952l0.357,0.107l-0.024,6.145   l-4.009-0.024c-2.614,0-3.125,0.823-3.125,2.245v5.716h7.273L59.71,57h-5.805V73.5z"/>
</g>
<g>
	<path style="fill:#472B29;" d="M50,74.825c-13.757,0-24.95-11.192-24.95-24.95S36.243,24.925,50,24.925s24.95,11.192,24.95,24.95   S63.757,74.825,50,74.825z M50,26.325c-12.985,0-23.55,10.564-23.55,23.55S37.015,73.425,50,73.425s23.55-10.564,23.55-23.55   S62.985,26.325,50,26.325z"/>
</g>
</svg>
