<?xml version="1.0" encoding="iso-8859-1"?>
<!-- Generator: Adobe Illustrator 22.1.0, SVG Export Plug-In . SVG Version: 6.00 Build 0)  -->
<svg xmlns="http://www.w3.org/2000/svg" xmlns:xlink="http://www.w3.org/1999/xlink" version="1.1" id="Layer_1" x="0px" y="0px" viewBox="0 0 100 100" style="enable-background:new 0 0 100 100;" xml:space="preserve" width="100px" height="100px">
<g>
	<g>
		<circle style="fill:#78A0CF;" cx="13" cy="29" r="2"/>
	</g>
	<g>
		<circle style="fill:#F1BC19;" cx="77" cy="13" r="1"/>
	</g>
	<g>
		<circle style="fill:#CEE1F4;" cx="50" cy="50" r="37"/>
	</g>
	<g>
		<circle style="fill:#F1BC19;" cx="83" cy="15" r="4"/>
	</g>
	<g>
		<circle style="fill:#78A0CF;" cx="87" cy="24" r="2"/>
	</g>
	<g>
		<circle style="fill:#FBCD59;" cx="81" cy="76" r="2"/>
	</g>
	<g>
		<circle style="fill:#FBCD59;" cx="15" cy="63" r="4"/>
	</g>
	<g>
		<circle style="fill:#78A0CF;" cx="25" cy="87" r="2"/>
	</g>
	<g>
		<circle style="fill:#FFFFFF;" cx="18.5" cy="53.5" r="2.5"/>
	</g>
	<g>
		<circle style="fill:#F1BC19;" cx="21" cy="67" r="1"/>
	</g>
	<g>
		<circle style="fill:#FFFFFF;" cx="80" cy="34" r="1"/>
	</g>
</g>
<g>
	<g>
		<path style="fill:#EA5167;" d="M35.233,47.447C36.447,40.381,42.588,35,50,35c3.367,0,6.464,1.123,8.968,2.996l6.393-6.885    C61.178,27.684,55.83,25.625,50,25.625c-11.942,0-21.861,8.635-23.871,20.001L35.233,47.447z"/>
	</g>
	<g>
		<path style="fill:#00A698;" d="M58.905,62.068C56.414,63.909,53.335,65,50,65c-7.842,0-14.268-6.02-14.934-13.689l-8.909,2.97    C28.23,65.569,38.113,74.125,50,74.125c6.261,0,11.968-2.374,16.27-6.27L58.905,62.068z"/>
	</g>
	<g>
		<path style="fill:#48BED8;" d="M68.5,45.5h-4.189H50.5v9h13.811c-1.073,3.414-3.333,6.301-6.296,8.179l7.245,6.038    c5.483-4.446,8.99-11.233,8.99-18.842c0-1.495-0.142-2.955-0.401-4.375H68.5z"/>
	</g>
	<g>
		<path style="fill:#FDE751;" d="M35,50c0-2.183,0.477-4.252,1.316-6.123l-7.818-5.212c-1.752,3.353-2.748,7.164-2.748,11.21    c0,3.784,0.868,7.365,2.413,10.556L36,55C35.634,53.702,35,51.415,35,50z"/>
	</g>
</g>
<g>
	<path style="fill:#472B29;" d="M50,74.825c-13.757,0-24.95-11.192-24.95-24.95S36.243,24.925,50,24.925   c5.75,0,11.362,2.005,15.804,5.646l0.576,0.472l-7.327,7.892l-0.504-0.377C56.051,36.688,53.095,35.7,50,35.7   c-7.885,0-14.3,6.415-14.3,14.3S42.115,64.3,50,64.3c5.956,0,11.195-3.618,13.324-9.1L50,55.208l-0.008-10.184l24.433-0.008   l0.104,0.574c0.274,1.503,0.421,2.801,0.421,4.285C74.95,63.633,63.758,74.825,50,74.825z M50,26.325   c-12.985,0-23.55,10.564-23.55,23.55S37.015,73.425,50,73.425s23.55-10.564,23.55-23.55c0-1.211-0.105-2.228-0.3-3.458H51.192   L51.2,53.8h14.065l-0.286,0.91C62.914,61.283,56.894,65.7,50,65.7c-8.657,0-15.7-7.043-15.7-15.7S41.343,34.3,50,34.3   c3.19,0,6.245,0.955,8.875,2.768l5.458-5.878C60.238,28.048,55.178,26.325,50,26.325z"/>
</g>
</svg>
