<?xml version="1.0" encoding="UTF-8" standalone="no"?>
<!-- Created with Inkscape (http://www.inkscape.org/) -->

<svg
   xmlns:dc="http://purl.org/dc/elements/1.1/"
   xmlns:cc="http://creativecommons.org/ns#"
   xmlns:rdf="http://www.w3.org/1999/02/22-rdf-syntax-ns#"
   xmlns:svg="http://www.w3.org/2000/svg"
   xmlns="http://www.w3.org/2000/svg"
   xmlns:xlink="http://www.w3.org/1999/xlink"
   xmlns:sodipodi="http://sodipodi.sourceforge.net/DTD/sodipodi-0.dtd"
   xmlns:inkscape="http://www.inkscape.org/namespaces/inkscape"
   width="156.45334"
   height="57.577747"
   id="svg4684"
   version="1.1"
   inkscape:version="0.91 r13725"
   viewBox="0 0 156.45335 57.577747"
   sodipodi:docname="jobfunnel_banner.svg">
  <defs
     id="defs4686">
    <linearGradient
       id="linearGradient5640"
       inkscape:collect="always">
      <stop
         id="stop5642"
         offset="0"
         style="stop-color:#000000;stop-opacity:1;" />
      <stop
         id="stop5644"
         offset="1"
         style="stop-color:#000000;stop-opacity:0;" />
    </linearGradient>
    <radialGradient
       r="11.624025"
       fy="123.74512"
       fx="192.97168"
       cy="123.74512"
       cx="192.97168"
       gradientTransform="matrix(0.15730437,0,0,0.15730437,185.75269,95.825714)"
       gradientUnits="userSpaceOnUse"
       id="radialGradient4432"
       xlink:href="#linearGradient5640"
       inkscape:collect="always" />
  </defs>
  <sodipodi:namedview
     id="base"
     pagecolor="#ffffff"
     bordercolor="#666666"
     borderopacity="1.0"
     inkscape:pageopacity="0.0"
     inkscape:pageshadow="2"
     inkscape:zoom="4.8000001"
     inkscape:cx="80.990374"
     inkscape:cy="16.117376"
     inkscape:document-units="px"
     inkscape:current-layer="layer1"
     showgrid="false"
     inkscape:snap-text-baseline="false"
     inkscape:window-width="1600"
     inkscape:window-height="837"
     inkscape:window-x="-8"
     inkscape:window-y="-8"
     inkscape:window-maximized="1"
     fit-margin-top="0"
     fit-margin-left="0"
     fit-margin-right="0"
     fit-margin-bottom="0"
     inkscape:object-paths="false"
     inkscape:snap-intersection-paths="false"
     inkscape:object-nodes="false"
     inkscape:snap-smooth-nodes="false"
     showguides="false"
     inkscape:guide-bbox="true"
     inkscape:snap-nodes="true">
    <sodipodi:guide
       position="73.626468,17.549814"
       orientation="0,1"
       id="guide4482" />
    <sodipodi:guide
       position="63.20401,34.601399"
       orientation="0,1"
       id="guide4516" />
  </sodipodi:namedview>
  <metadata
     id="metadata4689">
    <rdf:RDF>
      <cc:Work
         rdf:about="">
        <dc:format>image/svg+xml</dc:format>
        <dc:type
           rdf:resource="http://purl.org/dc/dcmitype/StillImage" />
        <dc:title></dc:title>
      </cc:Work>
    </rdf:RDF>
  </metadata>
  <g
     id="layer1"
     inkscape:label="Layer 1"
     inkscape:groupmode="layer"
     transform="translate(-4.979058,-0.95228305)">
    <path
       style="opacity:1;fill:#2aff80;fill-opacity:0.74838712;stroke:#37c871;stroke-width:0;stroke-miterlimit:4;stroke-dasharray:none;stroke-opacity:1"
       d="m 70.536949,28.082203 a 6.4580452,6.4580452 0 0 0 -6.457685,6.458766 6.4580452,6.4580452 0 0 0 6.457685,6.457685 6.4580452,6.4580452 0 0 0 6.457686,-6.457685 6.4580452,6.4580452 0 0 0 -6.457686,-6.458766 z m 0,2.191483 a 4.2669225,4.2669225 0 0 1 4.267284,4.267283 4.2669225,4.2669225 0 0 1 -4.267284,4.266202 4.2669225,4.2669225 0 0 1 -4.267283,-4.266202 4.2669225,4.2669225 0 0 1 4.267283,-4.267283 z"
       id="path4471"
       inkscape:connector-curvature="0" />
    <path
       inkscape:connector-curvature="0"
       id="path4476"
       d="m 84.536949,28.082203 a 6.4580452,6.4580452 0 0 0 -6.457685,6.458766 6.4580452,6.4580452 0 0 0 6.457685,6.457685 6.4580452,6.4580452 0 0 0 6.457691,-6.457685 6.4580452,6.4580452 0 0 0 -6.457691,-6.458766 z m 0,2.191483 a 4.2669225,4.2669225 0 0 1 4.267281,4.267283 4.2669225,4.2669225 0 0 1 -4.267281,4.266202 4.2669225,4.2669225 0 0 1 -4.267283,-4.266202 4.2669225,4.2669225 0 0 1 4.267283,-4.267283 z"
       style="opacity:1;fill:#2aff80;fill-opacity:0.74838712;stroke:#37c871;stroke-width:0;stroke-miterlimit:4;stroke-dasharray:none;stroke-opacity:1" />
    <path
       style="opacity:1;fill:#2aff80;fill-opacity:0.74838712;stroke:#37c871;stroke-width:0;stroke-miterlimit:4;stroke-dasharray:none;stroke-opacity:1"
       d="m 78.079918,23.935937 0,4 0,8.605469 0,4.439453 2.189453,0 0,-4.439453 0,-8.605469 0,-4 -2.189453,0 z"
       id="rect4478"
       inkscape:connector-curvature="0" />
    <path
       style="opacity:1;fill:#2aff80;fill-opacity:0.74838712;stroke:#37c871;stroke-width:0;stroke-miterlimit:4;stroke-dasharray:none;stroke-opacity:1"
       d="m 60.690262,23.928628 0,4 0,3.769532 0,4.835937 a 4.2669225,4.2669225 0 0 1 -4.267578,4.265625 l 0,2.191406 a 6.4580452,6.4580452 0 0 0 6.443359,-6.076171 6.4561905,6.4561905 0 0 0 0.01172,-0.347657 l 0.002,0 0,-0.0332 0,-8.605469 0,-4 -2.189453,0 z"
       id="path4485"
       inkscape:connector-curvature="0" />
    <path
       inkscape:connector-curvature="0"
       id="path4520"
       d="m 92.342545,23.928631 0,4 0,8.605469 0,4.439453 2.189453,0 0,-4.439453 0,-8.605469 0,-4 -2.189453,0 z"
       style="opacity:1;fill:#2aff80;fill-opacity:0.74838712;stroke:#37c871;stroke-width:0;stroke-miterlimit:4;stroke-dasharray:none;stroke-opacity:1" />
    <path
       inkscape:connector-curvature="0"
       id="path4524"
       d="m 101.70631,31.662612 -2.197433,0 -4.727482,0 -2.43885,0 0,2.189453 2.43885,0 4.727482,0 2.197433,0 0,-2.189453 z"
       style="opacity:1;fill:#2aff80;fill-opacity:0.74838712;stroke:#37c871;stroke-width:0;stroke-miterlimit:4;stroke-dasharray:none;stroke-opacity:1" />
    <path
       style="opacity:1;fill:#2aff80;fill-opacity:0.74838712;stroke:#37c871;stroke-width:0;stroke-miterlimit:4;stroke-dasharray:none;stroke-opacity:1"
       d="m 101.70631,23.928631 -2.197433,0 -4.727482,0 -2.43885,0 0,2.189453 2.43885,0 4.727482,0 2.197433,0 0,-2.189453 z"
       id="path4526"
       inkscape:connector-curvature="0" />
    <path
       style="opacity:1;fill:#2aff80;fill-opacity:0.74838712;stroke:#37c871;stroke-width:0;stroke-miterlimit:4;stroke-dasharray:none;stroke-opacity:1"
       d="m 102.97428,28.057033 0,6.458984 a 6.4580452,6.4580452 0 0 0 0.0332,0.644531 6.4580452,6.4580452 0 0 0 2.09571,4.136719 6.457151,6.457151 0 0 0 0.0605,0.05664 l 0,-0.0039 a 6.4580452,6.4580452 0 0 0 4.26758,1.623047 6.4580452,6.4580452 0 0 0 6.45899,-6.457031 l 0,-6.458984 -2.19141,0 0,1.621094 0,4.83789 a 4.2669225,4.2669225 0 0 1 -4.26758,4.265625 4.2669225,4.2669225 0 0 1 -4.26758,-4.265625 l 0,-4.839844 0,-1.61914 -2.18945,0 z"
       id="path4528"
       inkscape:connector-curvature="0" />
    <path
       style="opacity:1;fill:#2aff80;fill-opacity:0.74838712;stroke:#37c871;stroke-width:0;stroke-miterlimit:4;stroke-dasharray:none;stroke-opacity:1"
       d="m 113.69925,28.057033 0,8.451172 0,4.439453 2.18946,0 0,-4.439453 0,-8.451172 -2.18946,0 z"
       id="path4534"
       inkscape:connector-curvature="0" />
    <path
       id="path4574"
       d="m 129.99027,40.980222 0,-6.458984 a 6.4580452,6.4580452 0 0 0 -0.0332,-0.644531 6.4580452,6.4580452 0 0 0 -2.09571,-4.136719 6.457151,6.457151 0 0 0 -0.0605,-0.05664 l 0,0.0039 a 6.4580452,6.4580452 0 0 0 -4.26758,-1.623047 6.4580452,6.4580452 0 0 0 -6.45899,6.457031 l 0,6.458984 2.19141,0 0,-1.621094 0,-4.83789 a 4.2669225,4.2669225 0 0 1 4.26758,-4.265625 4.2669225,4.2669225 0 0 1 4.26758,4.265625 l 0,4.839844 0,1.61914 2.18945,0 z"
       style="opacity:1;fill:#2aff80;fill-opacity:0.74838712;stroke:#37c871;stroke-width:0;stroke-miterlimit:4;stroke-dasharray:none;stroke-opacity:1"
       inkscape:connector-curvature="0" />
    <path
       inkscape:connector-curvature="0"
       id="path4576"
       d="m 119.2653,40.980222 0,-8.451172 0,-4.439453 -2.18946,0 0,4.439453 0,8.451172 2.18946,0 z"
       style="opacity:1;fill:#2aff80;fill-opacity:0.74838712;stroke:#37c871;stroke-width:0;stroke-miterlimit:4;stroke-dasharray:none;stroke-opacity:1" />
    <path
       inkscape:connector-curvature="0"
       style="opacity:1;fill:#2aff80;fill-opacity:0.74838712;stroke:#37c871;stroke-width:0;stroke-miterlimit:4;stroke-dasharray:none;stroke-opacity:1"
       d="m 143.96318,40.954833 0,-6.458984 a 6.4580452,6.4580452 0 0 0 -0.0332,-0.644531 6.4580452,6.4580452 0 0 0 -2.09571,-4.136719 6.457151,6.457151 0 0 0 -0.0605,-0.05664 l 0,0.0039 a 6.4580452,6.4580452 0 0 0 -4.26758,-1.623047 6.4580452,6.4580452 0 0 0 -6.45899,6.457031 l 0,6.458984 2.19141,0 0,-1.621094 0,-4.83789 a 4.2669225,4.2669225 0 0 1 4.26758,-4.265625 4.2669225,4.2669225 0 0 1 4.26758,4.265625 l 0,4.839844 0,1.61914 2.18945,0 z"
       id="path4582" />
    <path
       style="opacity:1;fill:#2aff80;fill-opacity:0.74838712;stroke:#37c871;stroke-width:0;stroke-miterlimit:4;stroke-dasharray:none;stroke-opacity:1"
       d="m 133.23821,40.954833 0,-8.451172 0,-4.439453 -2.18946,0 0,4.439453 0,8.451172 2.18946,0 z"
       id="path4584"
       inkscape:connector-curvature="0" />
    <path
       style="opacity:1;fill:#2aff80;fill-opacity:0.74838712;stroke:#37c871;stroke-width:0;stroke-miterlimit:4;stroke-dasharray:none;stroke-opacity:1"
       d="m 145.55045,32.326564 a 6.4584978,6.4584978 0 0 0 -0.36328,1.658203 l 0,0.53125 8.45117,0 4.43946,0 a 6.4584978,6.4584978 0 0 0 -0.38672,-2.189453 l -4.05274,0 -8.08789,0 z"
       id="path4596"
       inkscape:connector-curvature="0" />
    <path
       style="opacity:1;fill:#2aff80;fill-opacity:0.74838712;stroke:#37c871;stroke-width:0;stroke-miterlimit:4;stroke-dasharray:none;stroke-opacity:1"
       d="m 151.61881,28.057033 a 6.4580452,6.4580452 0 0 0 -6.45703,6.458984 6.4580452,6.4580452 0 0 0 6.45703,6.457031 6.4580452,6.4580452 0 0 0 6.07031,-4.267578 l -0.14648,0 -2.26758,0 a 4.2669225,4.2669225 0 0 1 -3.65625,2.076172 4.2669225,4.2669225 0 0 1 -4.26758,-4.265625 4.2669225,4.2669225 0 0 1 4.26758,-4.267578 4.2669225,4.2669225 0 0 1 4.26758,4.267578 l 1.65625,0 0.53516,0 a 6.4580452,6.4580452 0 0 0 -6.45899,-6.458984 z"
       id="path4590"
       inkscape:connector-curvature="0" />
    <path
       style="opacity:1;fill:#2aff80;fill-opacity:0.74838712;stroke:#37c871;stroke-width:0;stroke-miterlimit:4;stroke-dasharray:none;stroke-opacity:1"
       d="m 159.24294,23.909905 0,4 0,8.605469 0,4.439453 2.18945,0 0,-4.439453 0,-8.605469 0,-4 -2.18945,0 z"
       id="path4610"
       inkscape:connector-curvature="0" />
    <g
       id="g4842"
       transform="matrix(0.19788618,0,0,0.19788618,4.9790583,0.95228296)">
      <g
         transform="translate(-148.3657,-70.088774)"
         style="display:none"
         inkscape:label="flow"
         id="layer7">
        <circle
           r="6.969872"
           cy="377.35333"
           cx="264.93716"
           id="circle5886"
           style="display:inline;opacity:1;fill:#ff5555;fill-opacity:1;stroke:#2a2ed6;stroke-width:0;stroke-miterlimit:4;stroke-dasharray:none;stroke-opacity:1" />
        <circle
           style="display:inline;opacity:1;fill:#2affd5;fill-opacity:1;stroke:#2a2ed6;stroke-width:0;stroke-miterlimit:4;stroke-dasharray:none;stroke-opacity:1"
           id="circle5890"
           cx="283.32193"
           cy="368.16095"
           r="4.1414471" />
        <circle
           r="3.4343412"
           cy="370.98938"
           cx="296.75696"
           id="circle5892"
           style="display:inline;opacity:1;fill:#37c871;fill-opacity:1;stroke:#2a2ed6;stroke-width:0;stroke-miterlimit:4;stroke-dasharray:none;stroke-opacity:1" />
        <circle
           style="display:inline;opacity:1;fill:#ffd42a;fill-opacity:1;stroke:#2a2ed6;stroke-width:0;stroke-miterlimit:4;stroke-dasharray:none;stroke-opacity:1"
           id="circle5894"
           cx="256.27512"
           cy="361.44342"
           r="6.969872" />
        <circle
           r="1.1843441"
           cy="362.68088"
           cx="272.89212"
           id="circle5896"
           style="display:inline;opacity:1;fill:#ff7f2a;fill-opacity:1;stroke:#2a2ed6;stroke-width:0;stroke-miterlimit:4;stroke-dasharray:none;stroke-opacity:1" />
        <circle
           style="display:inline;opacity:1;fill:#ff2a2a;fill-opacity:1;stroke:#2a2ed6;stroke-width:0;stroke-miterlimit:4;stroke-dasharray:none;stroke-opacity:1"
           id="circle5898"
           cx="302.41382"
           cy="355.6098"
           r="3.4343407" />
        <circle
           style="display:inline;opacity:1;fill:#ff5555;fill-opacity:1;stroke:#2a2ed6;stroke-width:0;stroke-miterlimit:4;stroke-dasharray:none;stroke-opacity:1"
           id="circle5900"
           cx="239.68716"
           cy="381.85333"
           r="1.7198758" />
        <circle
           r="1.8914498"
           cy="382.41095"
           cx="305.57193"
           id="circle5902"
           style="display:inline;opacity:1;fill:#2affd5;fill-opacity:1;stroke:#2a2ed6;stroke-width:0;stroke-miterlimit:4;stroke-dasharray:none;stroke-opacity:1" />
        <circle
           style="display:inline;opacity:1;fill:#37c871;fill-opacity:1;stroke:#2a2ed6;stroke-width:0;stroke-miterlimit:4;stroke-dasharray:none;stroke-opacity:1"
           id="circle5904"
           cx="286.75696"
           cy="385.48938"
           r="1.6843437" />
        <circle
           style="display:inline;opacity:1;fill:#ff2ad4;fill-opacity:1;stroke:#2a2ed6;stroke-width:0;stroke-miterlimit:4;stroke-dasharray:none;stroke-opacity:1"
           id="circle5906"
           cx="315.82193"
           cy="371.41095"
           r="1.8914498" />
        <circle
           style="display:inline;opacity:1;fill:#7f2aff;fill-opacity:1;stroke:#2a2ed6;stroke-width:0;stroke-miterlimit:4;stroke-dasharray:none;stroke-opacity:1"
           id="circle5908"
           cx="245.18716"
           cy="402.35333"
           r="3.7198744" />
        <circle
           r="3.7198744"
           cy="393.35333"
           cx="274.43716"
           id="circle5910"
           style="display:inline;opacity:1;fill:#ff5599;fill-opacity:1;stroke:#2a2ed6;stroke-width:0;stroke-miterlimit:4;stroke-dasharray:none;stroke-opacity:1" />
        <circle
           r="4.2198739"
           cy="401.44342"
           cx="300.52512"
           id="circle5912"
           style="display:inline;opacity:1;fill:#37abc8;fill-opacity:1;stroke:#2a2ed6;stroke-width:0;stroke-miterlimit:4;stroke-dasharray:none;stroke-opacity:1" />
        <circle
           style="display:inline;opacity:1;fill:#5fd38d;fill-opacity:1;stroke:#2a2ed6;stroke-width:0;stroke-miterlimit:4;stroke-dasharray:none;stroke-opacity:1"
           id="circle5914"
           cx="321.68716"
           cy="396.10333"
           r="3.7198744" />
        <circle
           style="display:inline;opacity:1;fill:#ff5555;fill-opacity:1;stroke:#2a2ed6;stroke-width:0;stroke-miterlimit:4;stroke-dasharray:none;stroke-opacity:1"
           id="circle5916"
           cx="222.43716"
           cy="395.35333"
           r="0.96987635" />
        <circle
           r="1.2198762"
           cy="384.19342"
           cx="321.77512"
           id="circle5918"
           style="display:inline;opacity:1;fill:#ffd42a;fill-opacity:1;stroke:#2a2ed6;stroke-width:0;stroke-miterlimit:4;stroke-dasharray:none;stroke-opacity:1" />
        <circle
           style="display:inline;opacity:1;fill:#37abc8;fill-opacity:1;stroke:#2a2ed6;stroke-width:0;stroke-miterlimit:4;stroke-dasharray:none;stroke-opacity:1"
           id="circle5920"
           cx="240.02512"
           cy="366.69342"
           r="0.96987778" />
        <circle
           r="4.1414471"
           cy="417.66095"
           cx="272.57193"
           id="circle5922"
           style="display:inline;opacity:1;fill:#2affd5;fill-opacity:1;stroke:#2a2ed6;stroke-width:0;stroke-miterlimit:4;stroke-dasharray:none;stroke-opacity:1" />
        <circle
           style="display:inline;opacity:1;fill:#3771c8;fill-opacity:1;stroke:#2a2ed6;stroke-width:0;stroke-miterlimit:4;stroke-dasharray:none;stroke-opacity:1"
           id="circle5924"
           cx="329.57193"
           cy="397.66095"
           r="0.891451" />
      </g>
      <g
         transform="translate(-148.3657,-70.088774)"
         style="display:none"
         inkscape:label="base"
         id="layer3">
        <path
           inkscape:connector-curvature="0"
           id="path4764-3"
           d="M 274.14062,218.7793 A 198.07581,117.08128 0 0 0 76.06445,335.85938 198.07581,117.08128 0 0 0 274.14062,452.94141 198.07581,117.08128 0 0 0 472.2168,335.85938 198.07581,117.08128 0 0 0 274.14062,218.7793 Z m 0,51.63086 a 120.629,65.450081 0 0 1 120.62891,65.44922 120.629,65.450081 0 0 1 -120.62891,65.45117 120.629,65.450081 0 0 1 -120.6289,-65.45117 120.629,65.450081 0 0 1 120.6289,-65.44922 z"
           style="display:inline;opacity:1;fill:#aa87de;fill-opacity:1;stroke:#472b29;stroke-width:0;stroke-miterlimit:4;stroke-dasharray:none;stroke-opacity:1" />
        <path
           style="display:inline;opacity:1;fill:#d42aff;fill-opacity:1;stroke:#472b29;stroke-width:0;stroke-miterlimit:4;stroke-dasharray:none;stroke-opacity:1"
           d="m 273.9972,239.54299 a 163.36155,94.58969 0 0 0 -163.36082,94.58954 163.36155,94.58969 0 0 0 116.47405,90.52959 l 21.83502,-45.13725 0.45335,-0.006 a 105.48231,46.727519 0 0 1 -80.88396,-45.38585 105.48231,46.727519 0 0 1 105.48236,-46.72621 105.48231,46.727519 0 0 1 105.48236,46.72621 105.48231,46.727519 0 0 1 -73.39336,44.45626 l 0.46571,-0.009 20.45024,44.9189 A 163.36155,94.58969 0 0 0 437.36009,334.13253 163.36155,94.58969 0 0 0 273.9972,239.54299 Z"
           id="path5694"
           inkscape:connector-curvature="0" />
      </g>
      <g
         transform="translate(-148.3657,-70.088774)"
         style="display:inline"
         inkscape:label="funnel"
         id="layer2">
        <path
           inkscape:connector-curvature="0"
           id="path4764"
           d="m 275.9082,102.93945 a 120.47896,72.561195 0 0 0 -10.2832,0.31055 120.47896,72.561195 0 0 1 10.2832,-0.31055 z m 10.28321,0.31055 a 120.47896,72.561195 0 0 1 5.94531,0.43555 120.47896,72.561195 0 0 0 -5.94531,-0.43555 z m -26.51172,0.43555 a 120.47896,72.561195 0 0 0 -5.9668,0.54297 120.47896,72.561195 0 0 1 5.9668,-0.54297 z m 38.42187,0.54297 a 120.47896,72.561195 0 0 1 5.88867,0.79492 120.47896,72.561195 0 0 0 -5.88867,-0.79492 z m -50.26562,0.79492 a 120.47896,72.561195 0 0 0 -5.81446,0.89258 120.47896,72.561195 0 0 1 5.81446,-0.89258 z m 61.95117,0.89062 a 120.47896,72.561195 0 0 1 5.76758,1.1543 120.47896,72.561195 0 0 0 -5.76758,-1.1543 z m -73.50586,1.15039 a 120.47896,72.561195 0 0 0 -5.64063,1.24024 120.47896,72.561195 0 0 1 5.64063,-1.24024 z m 84.88281,1.23828 a 120.47896,72.561195 0 0 1 5.51758,1.48633 120.47896,72.561195 0 0 0 -5.51758,-1.48633 z m -96.0039,1.48047 a 120.47896,72.561195 0 0 0 -5.42578,1.57813 120.47896,72.561195 0 0 1 5.42578,-1.57813 z m 106.91406,1.57618 a 120.47896,72.561195 0 0 1 5.21875,1.80078 120.47896,72.561195 0 0 0 -5.21875,-1.80078 z m -117.57617,1.81054 a 120.47896,72.561195 0 0 0 -5.10938,1.88672 120.47896,72.561195 0 0 1 5.10938,-1.88672 z m 127.94726,1.89258 a 120.47896,72.561195 0 0 1 4.85547,2.0918 120.47896,72.561195 0 0 0 -4.85547,-2.0918 z m -137.9707,2.11133 a 120.47896,72.561195 0 0 0 -4.78125,2.18945 120.47896,72.561195 0 0 1 4.78125,-2.18945 z m 147.66016,2.19531 a 120.47896,72.561195 0 0 1 4.46875,2.36328 120.47896,72.561195 0 0 0 -4.46875,-2.36328 z m -156.95118,2.37891 a 120.47896,72.561195 0 0 0 -4.41992,2.48047 120.47896,72.561195 0 0 1 4.41992,-2.48047 z m 165.875,2.48437 a 120.47896,72.561195 0 0 1 4.08594,2.64258 120.47896,72.561195 0 0 0 -4.08594,-2.64258 z m -174.39257,2.64649 a 120.47896,72.561195 0 0 0 -3.96485,2.71679 120.47896,72.561195 0 0 1 3.96485,-2.71679 z m 182.44726,2.71484 a 120.47896,72.561195 0 0 1 3.67578,2.91211 120.47896,72.561195 0 0 0 -3.67578,-2.91211 z m -190.0664,2.89648 a 120.47896,72.561195 0 0 0 -3.49415,2.94336 120.47896,72.561195 0 0 1 3.49415,-2.94336 z M 376.25,135.42188 a 120.47896,72.561195 0 0 1 3.17773,3.12109 120.47896,72.561195 0 0 0 -3.17773,-3.12109 z m -203.83203,3.09179 a 120.47896,72.561195 0 0 0 -3.01367,3.16406 120.47896,72.561195 0 0 1 3.01367,-3.16406 z m 103.49023,2.42578 a 120.47896,72.561195 0 0 0 -116.1914,53.69532 120.47896,72.561195 0 0 0 0.004,0.01 120.47896,72.561195 0 0 0 104.16016,53.05469 120.47896,72.561195 0 0 0 12.02734,0.36328 120.47896,72.561195 0 0 0 1.89649,-0.041 120.47896,72.561195 0 0 0 8.98047,-0.3125 120.47896,72.561195 0 0 0 5.23437,-0.38281 120.47896,72.561195 0 0 0 6.86719,-0.6582 120.47896,72.561195 0 0 0 4.60937,-0.62305 120.47896,72.561195 0 0 0 7.30664,-1.16015 120.47896,72.561195 0 0 0 3.86329,-0.77344 120.47896,72.561195 0 0 0 7.67382,-1.72852 120.47896,72.561195 0 0 0 3.17188,-0.85547 120.47896,72.561195 0 0 0 7.85156,-2.33007 120.47896,72.561195 0 0 0 2.56641,-0.88477 120.47896,72.561195 0 0 0 7.88086,-2.96289 120.47896,72.561195 0 0 0 1.95117,-0.83984 120.47896,72.561195 0 0 0 7.76172,-3.61133 120.47896,72.561195 0 0 0 1.46875,-0.77735 120.47896,72.561195 0 0 0 7.42578,-4.23047 120.47896,72.561195 0 0 0 1.07226,-0.69531 120.47896,72.561195 0 0 0 6.95508,-4.84179 120.47896,72.561195 0 0 0 0.67969,-0.54102 120.47896,72.561195 0 0 0 6.36719,-5.44922 120.47896,72.561195 0 0 0 0.38476,-0.3789 120.47896,72.561195 0 0 0 5.59766,-5.98438 120.47896,72.561195 0 0 0 0.20117,-0.25 120.47896,72.561195 0 0 0 4.69336,-6.45508 120.47896,72.561195 0 0 0 0.0508,-0.082 120.47896,72.561195 0 0 0 3.67774,-6.8457 120.47896,72.561195 0 0 0 0.002,-0.002 120.47896,72.561195 0 0 0 -116.19141,-53.42578 z m 106.49024,0.72461 a 120.47896,72.561195 0 0 1 2.63672,3.28516 120.47896,72.561195 0 0 0 -2.63672,-3.28516 z m -215.5918,3.25196 a 120.47896,72.561195 0 0 0 -2.4707,3.32421 120.47896,72.561195 0 0 1 2.4707,-3.32421 z m 220.66602,3.3125 a 120.47896,72.561195 0 0 1 2.07812,3.42773 120.47896,72.561195 0 0 0 -2.07812,-3.42773 z m -225.19532,3.4082 a 120.47896,72.561195 0 0 0 -1.90625,3.45703 120.47896,72.561195 0 0 1 1.90625,-3.45703 z m 229.16407,3.44726 a 120.47896,72.561195 0 0 1 1.49218,3.52149 120.47896,72.561195 0 0 0 -1.49218,-3.52149 z m -232.55079,3.49805 a 120.47896,72.561195 0 0 0 -1.32421,3.55274 120.47896,72.561195 0 0 1 1.32421,-3.55274 z m 235.35547,3.54102 a 120.47896,72.561195 0 0 1 0.90625,3.61133 120.47896,72.561195 0 0 0 -0.90625,-3.61133 z m -237.57617,3.58789 a 120.47896,72.561195 0 0 0 -0.72656,3.61133 120.47896,72.561195 0 0 1 0.72656,-3.61133 z m 239.20313,3.59765 a 120.47896,72.561195 0 0 1 0.51367,6.19141 120.47896,72.561195 0 0 0 -0.51367,-6.19141 z"
           style="opacity:1;fill:#2aff80;fill-opacity:1;stroke:#2a2ed6;stroke-width:0;stroke-miterlimit:4;stroke-dasharray:none;stroke-opacity:1" />
        <path
           inkscape:connector-curvature="0"
           id="ellipse4211"
           d="m 275.79102,169.78906 a 98.220871,55.8728 0 0 0 -97.15625,48.35547 120.47896,72.561195 0 0 0 9.6582,7.08008 87.535927,49.794688 0 0 1 87.49805,-49.35742 87.535927,49.794688 0 0 1 87.51367,49.45898 120.47896,72.561195 0 0 0 9.69922,-7.12109 98.220871,55.8728 0 0 0 -97.21289,-48.41602 z"
           style="opacity:1;fill:#55ff99;fill-opacity:1;stroke:#472b29;stroke-width:0;stroke-miterlimit:4;stroke-dasharray:none;stroke-opacity:1" />
        <path
           inkscape:connector-curvature="0"
           id="path4228"
           d="m 275.79102,203.32617 a 76.634369,47.459894 0 0 0 -71.50196,30.40821 120.47896,72.561195 0 0 0 5.11524,2.20703 69.865561,43.267952 0 0 1 66.38672,-29.87305 69.865561,43.267952 0 0 1 66.35937,29.90625 120.47896,72.561195 0 0 0 5.11133,-2.16406 76.634369,47.459894 0 0 0 -71.4707,-30.48438 z"
           style="opacity:1;fill:#80ffb3;fill-opacity:1;stroke:#472b29;stroke-width:0;stroke-miterlimit:4;stroke-dasharray:none;stroke-opacity:1" />
        <path
           inkscape:connector-curvature="0"
           id="ellipse4203"
           d="m 275.79102,206.06836 a 69.865561,43.267952 0 0 0 -66.34961,29.88672 120.47896,72.561195 0 0 0 6.13476,2.26758 62.863232,38.931389 0 0 1 60.21485,-27.81836 62.863232,38.931389 0 0 1 60.22656,27.875 120.47896,72.561195 0 0 0 6.16992,-2.32032 69.865561,43.267952 0 0 0 -66.39648,-29.89062 z"
           style="opacity:1;fill:#00aa44;fill-opacity:1;stroke:#472b29;stroke-width:0;stroke-miterlimit:4;stroke-dasharray:none;stroke-opacity:1" />
        <path
           inkscape:connector-curvature="0"
           id="path4784"
           d="M 275.9082,102.93945 A 120.47896,72.561195 0 0 0 155.42969,175.5 l 0,38 A 120.47896,72.561195 0 0 0 275.9082,286.0625 120.47896,72.561195 0 0 0 396.38672,213.5 l 0,-38 A 120.47896,72.561195 0 0 0 275.9082,102.93945 Z m 0,38 a 120.47896,72.561195 0 0 1 116.19141,53.42578 120.47896,72.561195 0 0 1 -116.19141,53.69727 120.47896,72.561195 0 0 1 -116.1914,-53.42773 120.47896,72.561195 0 0 0 -0.0234,0.0625 l 0.01,-0.041 -0.0293,-0.12891 a 120.47896,72.561195 0 0 0 0.043,0.10743 120.47896,72.561195 0 0 1 116.1914,-53.69532 z"
           style="display:inline;fill:#37c871;fill-rule:evenodd;stroke:#472b29;stroke-width:0;stroke-linecap:butt;stroke-linejoin:miter;stroke-miterlimit:4;stroke-dasharray:none;stroke-opacity:1" />
        <path
           inkscape:connector-curvature="0"
           id="path4799"
           d="m 310.13477,317.20117 c -11.86924,12.91906 -17.75722,14.19418 -31.25977,14.54297 -12.42957,0.0328 -24.57847,-1.55032 -35.5957,-13.40234 l -0.24219,24.31836 a 33.72163,18.393618 0 0 0 33.72266,18.39257 33.72163,18.393618 0 0 0 33.7207,-18.39257 l -0.3457,-25.45899 z"
           style="display:inline;opacity:1;fill:#00963c;fill-opacity:1;stroke:#472b29;stroke-width:0;stroke-miterlimit:4;stroke-dasharray:none;stroke-opacity:1" />
        <path
           sodipodi:nodetypes="cccccccccc"
           inkscape:connector-curvature="0"
           id="path4790"
           d="m 356.17188,267.61523 -0.1875,0.002 c -22.03404,11.85376 -50.53186,18.41815 -80.07618,18.44531 -27.69704,-0.0144 -54.54004,-5.77592 -76.00976,-16.31445 l -0.0996,0.002 -0.0879,-0.043 43.56836,48.63477 c 11.01723,11.85202 23.16587,13.43492 35.59544,13.40208 13.50255,-0.34879 19.39079,-1.62365 31.26003,-14.54271 z"
           style="display:inline;fill:#00aa44;fill-rule:evenodd;stroke:#472b29;stroke-width:0;stroke-linecap:butt;stroke-linejoin:miter;stroke-miterlimit:4;stroke-dasharray:none;stroke-opacity:1" />
      </g>
      <g
         transform="translate(-148.3657,-70.088774)"
         style="display:inline"
         inkscape:label="water"
         id="layer4">
        <path
           inkscape:connector-curvature="0"
           id="path4734"
           d="m 281.49872,120.7374 a 103.70774,60.467659 0 0 0 -74.39844,18.43359 103.70774,60.467659 0 0 1 66.41211,-14.09766 103.70774,60.467659 0 0 1 103.70703,60.4668 103.70774,60.467659 0 0 1 -29.30078,42.03125 103.70774,60.467659 0 0 0 37.28711,-46.36523 103.70774,60.467659 0 0 0 -103.70703,-60.46875 z m 66.41992,106.83398 a 103.70774,60.467659 0 0 1 -66.41992,14.10156 103.70774,60.467659 0 0 1 -103.70703,-60.46679 103.70774,60.467659 0 0 1 29.30859,-42.03516 103.70774,60.467659 0 0 0 -37.29492,46.36914 103.70774,60.467659 0 0 0 103.70703,60.46875 103.70774,60.467659 0 0 0 74.40625,-18.4375 z"
           style="display:inline;opacity:1;fill:#27c1d9;fill-opacity:0.36129037;stroke:#2a2ed6;stroke-width:0;stroke-miterlimit:4;stroke-dasharray:none;stroke-opacity:1" />
        <path
           inkscape:connector-curvature="0"
           id="path4750"
           d="m 240.83974,176.51656 a 49.276388,28.731007 1.1853629 0 1 35.52755,-8.02727 49.276388,28.731007 1.1853629 0 1 48.67113,29.74474 49.276388,28.731007 1.1853629 0 1 -18.17254,21.66084 49.276388,28.731007 1.1853629 0 0 14.33608,-19.6805 49.276388,28.731007 1.1853629 0 0 -48.67116,-29.74382 49.276388,28.731007 1.1853629 0 0 -31.69106,6.04601 z"
           style="display:inline;opacity:1;fill:#4127d9;fill-opacity:0.36129037;stroke:#2a2ed6;stroke-width:0;stroke-miterlimit:4;stroke-dasharray:none;stroke-opacity:1" />
        <path
           inkscape:connector-curvature="0"
           id="path4746"
           d="m 270.20118,215.1423 a 49.276388,28.731007 1.1853629 0 1 -48.67113,-29.74474 49.276388,28.731007 1.1853629 0 1 18.16879,-21.65907 49.276388,28.731007 1.1853629 0 0 -14.33233,19.67873 49.276388,28.731007 1.1853629 0 0 48.67116,29.74382 49.276388,28.731007 1.1853629 0 0 31.68731,-6.04424 49.276388,28.731007 1.1853629 0 1 -35.5238,8.0255 z"
           style="display:inline;opacity:1;fill:#2751d9;fill-opacity:0.36129037;stroke:#2a2ed6;stroke-width:0;stroke-miterlimit:4;stroke-dasharray:none;stroke-opacity:1" />
        <path
           style="display:inline;opacity:1;fill:#278dd9;fill-opacity:0.36129037;stroke:#2a2ed6;stroke-width:0;stroke-miterlimit:4;stroke-dasharray:none;stroke-opacity:1"
           d="m 262.8756,146.21232 a 44.458947,76.251289 85.419604 0 1 79.5577,38.22851 44.458947,76.251289 85.419604 0 1 -24.60548,36.17058 44.458947,76.251289 85.419604 0 0 19.00674,-32.52526 44.458947,76.251289 85.419604 0 0 -79.55758,-38.2271 44.458947,76.251289 85.419604 0 0 -47.84592,14.23167 44.458947,76.251289 85.419604 0 1 53.44454,-17.8784 z"
           id="path4752"
           inkscape:connector-curvature="0" />
        <path
           inkscape:connector-curvature="0"
           id="path4754"
           d="m 276.1384,133.96791 a 88.911964,49.243553 0 0 0 -88.91235,49.2441 88.911964,49.243553 0 0 0 5.5682,17.0542 88.911964,49.243553 0 0 1 -2.83344,-12.16844 88.911964,49.243553 0 0 1 88.91234,-49.24409 88.911964,49.243553 0 0 1 83.34245,32.18989 88.911964,49.243553 0 0 0 -86.0772,-37.07566 z m 86.0772,37.07566 a 88.911964,49.243553 0 0 1 2.83345,12.16844 88.911964,49.243553 0 0 1 -88.91065,49.24407 88.911964,49.243553 0 0 1 -83.34415,-32.18987 88.911964,49.243553 0 0 0 86.0789,37.07399 88.911964,49.243553 0 0 0 88.91233,-49.24243 88.911964,49.243553 0 0 0 -5.56988,-17.0542 z"
           style="display:inline;opacity:1;fill:#2766d9;fill-opacity:0.36129037;stroke:#2a2ed6;stroke-width:0;stroke-miterlimit:4;stroke-dasharray:none;stroke-opacity:1" />
      </g>
      <g
         transform="translate(-148.3657,-70.088774)"
         style="display:inline"
         inkscape:label="bubbles"
         id="layer5">
        <circle
           style="opacity:1;fill:#ff5555;fill-opacity:1;stroke:#2a2ed6;stroke-width:0;stroke-miterlimit:4;stroke-dasharray:none;stroke-opacity:1"
           id="circle4295"
           cx="158.164"
           cy="147.54366"
           r="9.7982979" />
        <circle
           r="9.7982979"
           cy="79.887077"
           cx="271.99817"
           id="circle4316"
           style="opacity:1;fill:#99ff55;fill-opacity:1;stroke:#2a2ed6;stroke-width:0;stroke-miterlimit:4;stroke-dasharray:none;stroke-opacity:1" />
        <circle
           style="opacity:1;fill:#87de87;fill-opacity:1;stroke:#2a2ed6;stroke-width:0;stroke-miterlimit:4;stroke-dasharray:none;stroke-opacity:1"
           id="circle4322"
           cx="357.70764"
           cy="103.02905"
           r="5.9765949" />
        <circle
           r="9.7982979"
           cy="129.26669"
           cx="371.16864"
           id="circle4328"
           style="opacity:1;fill:#b380ff;fill-opacity:1;stroke:#2a2ed6;stroke-width:0;stroke-miterlimit:4;stroke-dasharray:none;stroke-opacity:1" />
        <circle
           style="opacity:1;fill:#80ffb3;fill-opacity:1;stroke:#2a2ed6;stroke-width:0;stroke-miterlimit:4;stroke-dasharray:none;stroke-opacity:1"
           id="circle4334"
           cx="245.94557"
           cy="95.172806"
           r="5.7447696" />
        <circle
           r="5.7447696"
           cy="94.886955"
           cx="323.30106"
           id="circle4340"
           style="opacity:1;fill:#ffdd55;fill-opacity:1;stroke:#2a2ed6;stroke-width:0;stroke-miterlimit:4;stroke-dasharray:none;stroke-opacity:1" />
        <circle
           style="opacity:1;fill:#ff7f2a;fill-opacity:1;stroke:#2a2ed6;stroke-width:0;stroke-miterlimit:4;stroke-dasharray:none;stroke-opacity:1"
           id="circle4346"
           cx="156.27341"
           cy="174.29355"
           r="5.7447696" />
        <circle
           r="5.7447696"
           cy="132.30846"
           cx="335.16641"
           id="circle4352"
           style="opacity:1;fill:#ff2a2a;fill-opacity:1;stroke:#2a2ed6;stroke-width:0;stroke-miterlimit:4;stroke-dasharray:none;stroke-opacity:1" />
        <circle
           style="opacity:1;fill:#80b3ff;fill-opacity:1;stroke:#2a2ed6;stroke-width:0;stroke-miterlimit:4;stroke-dasharray:none;stroke-opacity:1"
           id="circle4358"
           cx="232.02911"
           cy="126.83214"
           r="5.7447696" />
        <circle
           r="3.0424182"
           cy="154.01463"
           cx="199.97321"
           id="circle4364"
           style="opacity:1;fill:#5555ff;fill-opacity:1;stroke:#2a2ed6;stroke-width:0;stroke-miterlimit:4;stroke-dasharray:none;stroke-opacity:1" />
        <circle
           style="opacity:1;fill:#c83737;fill-opacity:1;stroke:#2a2ed6;stroke-width:0;stroke-miterlimit:4;stroke-dasharray:none;stroke-opacity:1"
           id="circle4370"
           cx="336.07605"
           cy="221.57846"
           r="3.0424182" />
        <circle
           r="3.0424182"
           cy="168.21321"
           cx="331.63278"
           id="circle4376"
           style="opacity:1;fill:#6600ff;fill-opacity:1;stroke:#2a2ed6;stroke-width:0;stroke-miterlimit:4;stroke-dasharray:none;stroke-opacity:1" />
        <circle
           style="opacity:1;fill:#5f8dd3;fill-opacity:1;stroke:#2a2ed6;stroke-width:0;stroke-miterlimit:4;stroke-dasharray:none;stroke-opacity:1"
           id="circle4382"
           cx="353.57605"
           cy="213.39052"
           r="3.0424182" />
        <circle
           r="3.0424182"
           cy="222.42598"
           cx="230.95193"
           id="circle4388"
           style="opacity:1;fill:#ff2a2a;fill-opacity:1;stroke:#2a2ed6;stroke-width:0;stroke-miterlimit:4;stroke-dasharray:none;stroke-opacity:1" />
        <circle
           style="opacity:1;fill:#ffdd55;fill-opacity:1;stroke:#2a2ed6;stroke-width:0;stroke-miterlimit:4;stroke-dasharray:none;stroke-opacity:1"
           id="circle4394"
           cx="168.82071"
           cy="185.7735"
           r="3.0424182" />
        <circle
           r="1.3534495"
           cy="146.69678"
           cx="215.14592"
           id="circle4400"
           style="opacity:1;fill:#55ff99;fill-opacity:1;stroke:#2a2ed6;stroke-width:0;stroke-miterlimit:4;stroke-dasharray:none;stroke-opacity:1" />
        <circle
           style="opacity:1;fill:#ff7f2a;fill-opacity:1;stroke:#2a2ed6;stroke-width:0;stroke-miterlimit:4;stroke-dasharray:none;stroke-opacity:1"
           id="circle4406"
           cx="157.64711"
           cy="110.27576"
           r="1.3534495" />
        <circle
           r="1.3534495"
           cy="134.1552"
           cx="399.02301"
           id="circle4412"
           style="opacity:1;fill:#ff2a2a;fill-opacity:1;stroke:#2a2ed6;stroke-width:0;stroke-miterlimit:4;stroke-dasharray:none;stroke-opacity:1" />
        <circle
           style="opacity:1;fill:#ffcc00;fill-opacity:1;stroke:#2a2ed6;stroke-width:0;stroke-miterlimit:4;stroke-dasharray:none;stroke-opacity:1"
           id="circle4418"
           cx="367.58685"
           cy="114.79704"
           r="1.3534495" />
        <circle
           r="1.3534495"
           cy="88.977898"
           cx="340.29251"
           id="circle4424"
           style="opacity:1;fill:#ff2ad4;fill-opacity:1;stroke:#2a2ed6;stroke-width:0;stroke-miterlimit:4;stroke-dasharray:none;stroke-opacity:1" />
        <path
           inkscape:connector-curvature="0"
           id="path4428"
           d="m 216.10782,113.46286 a 1.8284645,1.8284645 0 0 0 -1.82835,1.82835 1.8284645,1.8284645 0 0 0 1.82835,1.82866 1.8284645,1.8284645 0 0 0 1.82867,-1.82866 1.8284645,1.8284645 0 0 0 -1.82867,-1.82835 z m 0,0.28726 a 1.5413152,1.5413152 0 0 1 1.5414,1.54109 1.5413152,1.5413152 0 0 1 -1.5414,1.5414 1.5413152,1.5413152 0 0 1 -1.54108,-1.5414 1.5413152,1.5413152 0 0 1 1.54108,-1.54109 z"
           style="opacity:1;fill:url(#radialGradient4432);fill-opacity:1;stroke:#2a2ed6;stroke-width:0;stroke-miterlimit:4;stroke-dasharray:none;stroke-opacity:1" />
        <circle
           style="opacity:1;fill:#b3b3b3;fill-opacity:1;stroke:#2a2ed6;stroke-width:0;stroke-miterlimit:4;stroke-dasharray:none;stroke-opacity:1"
           id="circle4430"
           cx="216.10797"
           cy="115.29131"
           r="1.3534495" />
        <circle
           r="1.3534495"
           cy="111.41898"
           cx="298.07251"
           id="circle4436"
           style="opacity:1;fill:#80ffe6;fill-opacity:1;stroke:#2a2ed6;stroke-width:0;stroke-miterlimit:4;stroke-dasharray:none;stroke-opacity:1" />
        <circle
           style="opacity:1;fill:#ff0000;fill-opacity:1;stroke:#2a2ed6;stroke-width:0;stroke-miterlimit:4;stroke-dasharray:none;stroke-opacity:1"
           id="circle4442"
           cx="287.47739"
           cy="96.692238"
           r="1.3534495" />
        <circle
           r="1.3534495"
           cy="178.53955"
           cx="282.58313"
           id="circle4448"
           style="opacity:1;fill:#ff2ad4;fill-opacity:1;stroke:#2a2ed6;stroke-width:0;stroke-miterlimit:4;stroke-dasharray:none;stroke-opacity:1" />
        <circle
           style="opacity:1;fill:#80ff80;fill-opacity:1;stroke:#2a2ed6;stroke-width:0;stroke-miterlimit:4;stroke-dasharray:none;stroke-opacity:1"
           id="circle4454"
           cx="258.7037"
           cy="200.48282"
           r="1.3534495" />
        <circle
           r="1.3534495"
           cy="229.04134"
           cx="270.80478"
           id="circle4460"
           style="opacity:1;fill:#ff80b2;fill-opacity:1;stroke:#2a2ed6;stroke-width:0;stroke-miterlimit:4;stroke-dasharray:none;stroke-opacity:1" />
        <circle
           style="opacity:1;fill:#80e5ff;fill-opacity:1;stroke:#2a2ed6;stroke-width:0;stroke-miterlimit:4;stroke-dasharray:none;stroke-opacity:1"
           id="circle4466"
           cx="296.45905"
           cy="216.45622"
           r="1.3534495" />
        <circle
           r="1.3534495"
           cy="218.87643"
           cx="252.08847"
           id="circle4472"
           style="opacity:1;fill:#e580ff;fill-opacity:1;stroke:#2a2ed6;stroke-width:0;stroke-miterlimit:4;stroke-dasharray:none;stroke-opacity:1" />
        <circle
           style="opacity:1;fill:#99ff55;fill-opacity:1;stroke:#2a2ed6;stroke-width:0;stroke-miterlimit:4;stroke-dasharray:none;stroke-opacity:1"
           id="circle4478"
           cx="212.07428"
           cy="188.05905"
           r="1.3534495" />
        <circle
           r="1.3534495"
           cy="177.57146"
           cx="325.01755"
           id="circle4484"
           style="opacity:1;fill:#80ffe6;fill-opacity:1;stroke:#2a2ed6;stroke-width:0;stroke-miterlimit:4;stroke-dasharray:none;stroke-opacity:1" />
      </g>
      <g
         transform="translate(-148.3657,-70.088774)"
         style="display:inline"
         inkscape:label="icons"
         id="layer6">
        <g
           transform="matrix(0.78937244,0,0,0.78937244,173.0529,149.88747)"
           id="g4681"
           style="display:inline">
          <g
             id="g4493">
            <g
               id="g4495">
              <g
                 id="g4497">
                <g
                   id="g4499">
                  <g
                     id="g4501">
                    <g
                       id="g4503">
                      <circle
                         style="fill:#f1bc19"
                         cx="77"
                         cy="13"
                         r="1"
                         id="circle4505" />
                    </g>
                  </g>
                  <g
                     id="g4507">
                    <g
                       id="g4509">
                      <circle
                         style="fill:#e4e4f9"
                         cx="50"
                         cy="50"
                         r="37"
                         id="circle4511" />
                    </g>
                  </g>
                  <g
                     id="g4513">
                    <g
                       id="g4515">
                      <circle
                         style="fill:#f1bc19"
                         cx="83"
                         cy="15"
                         r="4"
                         id="circle4517" />
                    </g>
                  </g>
                  <g
                     id="g4519">
                    <g
                       id="g4521">
                      <circle
                         style="fill:#8889b9"
                         cx="87"
                         cy="24"
                         r="2"
                         id="circle4523" />
                    </g>
                  </g>
                  <g
                     id="g4525">
                    <g
                       id="g4527">
                      <circle
                         style="fill:#fbcd59"
                         cx="81"
                         cy="76"
                         r="2"
                         id="circle4529" />
                    </g>
                  </g>
                  <g
                     id="g4531">
                    <g
                       id="g4533">
                      <circle
                         style="fill:#fbcd59"
                         cx="15"
                         cy="63"
                         r="4"
                         id="circle4535" />
                    </g>
                  </g>
                  <g
                     id="g4537">
                    <g
                       id="g4539">
                      <circle
                         style="fill:#8889b9"
                         cx="25"
                         cy="87"
                         r="2"
                         id="circle4541" />
                    </g>
                  </g>
                  <g
                     id="g4543">
                    <g
                       id="g4545">
                      <circle
                         style="fill:#ffffff"
                         cx="18.5"
                         cy="51.5"
                         r="2.5"
                         id="circle4547" />
                    </g>
                  </g>
                  <g
                     id="g4549">
                    <g
                       id="g4551">
                      <circle
                         style="fill:#ffffff"
                         cx="79.5"
                         cy="33.5"
                         r="1.5"
                         id="circle4553" />
                    </g>
                  </g>
                </g>
              </g>
            </g>
          </g>
          <g
             id="g4555">
            <g
               id="g4557">
              <g
                 id="g4559">
                <polygon
                   style="fill:#78cdd4"
                   points="70.25,47.333 70.25,27 46.75,30.411 46.75,47.333 "
                   id="polygon4561" />
              </g>
              <g
                 id="g4563">
                <path
                   inkscape:connector-curvature="0"
                   style="fill:#472b29"
                   d="m 70.25,48.033 -23.5,0 c -0.387,0 -0.7,-0.313 -0.7,-0.7 l 0,-16.922 c 0,-0.348 0.255,-0.643 0.6,-0.692 l 23.5,-3.411 c 0.203,-0.026 0.405,0.031 0.559,0.163 0.154,0.133 0.242,0.326 0.242,0.529 l 0,20.333 c -10e-4,0.387 -0.314,0.7 -0.701,0.7 z m -22.8,-1.4 22.1,0 0,-18.824 -22.1,3.208 0,15.616 z"
                   id="path4565" />
              </g>
            </g>
            <g
               id="g4567">
              <g
                 id="g4569">
                <polygon
                   style="fill:#78cdd4"
                   points="43.25,30.846 26.833,33.387 26.833,47.333 43.25,47.333 "
                   id="polygon4571" />
              </g>
              <g
                 id="g4573">
                <path
                   inkscape:connector-curvature="0"
                   style="fill:#472b29"
                   d="m 43.25,48.033 -16.417,0 c -0.387,0 -0.7,-0.313 -0.7,-0.7 l 0,-13.946 c 0,-0.346 0.252,-0.639 0.593,-0.691 l 16.417,-2.54 c 0.2,-0.032 0.407,0.026 0.563,0.16 0.155,0.133 0.245,0.327 0.245,0.531 l 0,16.486 c -10e-4,0.387 -0.314,0.7 -0.701,0.7 z m -15.716,-1.4 15.016,0 0,-14.97 -15.016,2.323 0,12.647 z"
                   id="path4575" />
              </g>
            </g>
            <g
               id="g4577">
              <g
                 id="g4579">
                <polygon
                   style="fill:#78cdd4"
                   points="26.833,50.833 26.833,64.666 43.25,67.185 43.25,50.833 "
                   id="polygon4581" />
              </g>
              <g
                 id="g4583">
                <path
                   inkscape:connector-curvature="0"
                   style="fill:#472b29"
                   d="m 43.25,67.886 c -0.035,0 -0.071,-0.003 -0.106,-0.008 l -16.417,-2.52 c -0.342,-0.053 -0.594,-0.347 -0.594,-0.692 l 0,-13.833 c 0,-0.387 0.313,-0.7 0.7,-0.7 l 16.417,0 c 0.387,0 0.7,0.313 0.7,0.7 l 0,16.353 c 0,0.204 -0.089,0.398 -0.244,0.531 -0.128,0.109 -0.29,0.169 -0.456,0.169 z m -15.716,-3.821 15.016,2.305 0,-14.837 -15.016,0 0,12.532 z"
                   id="path4585" />
              </g>
            </g>
            <g
               id="g4587">
              <g
                 id="g4589">
                <polygon
                   style="fill:#78cdd4"
                   points="46.75,67.617 70.25,71 70.25,50.833 46.75,50.833 "
                   id="polygon4591" />
              </g>
              <g
                 id="g4593">
                <path
                   inkscape:connector-curvature="0"
                   style="fill:#472b29"
                   d="m 70.25,71.7 c -0.033,0 -0.066,-0.003 -0.1,-0.008 L 46.65,68.309 C 46.305,68.26 46.049,67.964 46.049,67.617 l 0,-16.784 c 0,-0.387 0.313,-0.7 0.7,-0.7 l 23.5,0 c 0.387,0 0.7,0.313 0.7,0.7 l 0,20.167 c 0,0.203 -0.088,0.396 -0.242,0.529 C 70.58,71.64 70.417,71.7 70.25,71.7 Z m -22.8,-4.689 22.1,3.182 0,-18.66 -22.1,0 0,15.478 z"
                   id="path4595" />
              </g>
            </g>
          </g>
          <g
             id="g4597">
            <g
               id="g4599">
              <path
                 inkscape:connector-curvature="0"
                 style="fill:#472b29"
                 d="M 67.5,45 C 67.224,45 67,44.776 67,44.5 l 0,-7 c 0,-0.276 0.224,-0.5 0.5,-0.5 0.276,0 0.5,0.224 0.5,0.5 l 0,7 c 0,0.276 -0.224,0.5 -0.5,0.5 z"
                 id="path4601" />
            </g>
          </g>
          <g
             id="g4603">
            <g
               id="g4605">
              <path
                 inkscape:connector-curvature="0"
                 style="fill:#472b29"
                 d="M 40.5,61 C 40.224,61 40,60.776 40,60.5 l 0,-7 c 0,-0.276 0.224,-0.5 0.5,-0.5 0.276,0 0.5,0.224 0.5,0.5 l 0,7 c 0,0.276 -0.224,0.5 -0.5,0.5 z"
                 id="path4607" />
            </g>
          </g>
          <g
             id="g4609">
            <g
               id="g4611">
              <path
                 inkscape:connector-curvature="0"
                 style="fill:#472b29"
                 d="M 29.5,40 C 29.224,40 29,39.776 29,39.5 l 0,-4 c 0,-0.276 0.224,-0.5 0.5,-0.5 0.276,0 0.5,0.224 0.5,0.5 l 0,4 c 0,0.276 -0.224,0.5 -0.5,0.5 z"
                 id="path4613" />
            </g>
          </g>
          <g
             id="g4615">
            <g
               id="g4617">
              <path
                 inkscape:connector-curvature="0"
                 style="fill:#472b29"
                 d="M 29.5,45 C 29.224,45 29,44.776 29,44.5 l 0,-3 c 0,-0.276 0.224,-0.5 0.5,-0.5 0.276,0 0.5,0.224 0.5,0.5 l 0,3 c 0,0.276 -0.224,0.5 -0.5,0.5 z"
                 id="path4619" />
            </g>
          </g>
          <g
             id="g4621">
            <g
               id="g4623">
              <path
                 inkscape:connector-curvature="0"
                 style="fill:#472b29"
                 d="M 29.5,57 C 29.224,57 29,56.776 29,56.5 l 0,-3 c 0,-0.276 0.224,-0.5 0.5,-0.5 0.276,0 0.5,0.224 0.5,0.5 l 0,3 c 0,0.276 -0.224,0.5 -0.5,0.5 z"
                 id="path4625" />
            </g>
          </g>
          <g
             id="g4627">
            <g
               id="g4629">
              <path
                 inkscape:connector-curvature="0"
                 style="fill:#472b29"
                 d="M 40.5,65 C 40.224,65 40,64.776 40,64.5 l 0,-2 c 0,-0.276 0.224,-0.5 0.5,-0.5 0.276,0 0.5,0.224 0.5,0.5 l 0,2 c 0,0.276 -0.224,0.5 -0.5,0.5 z"
                 id="path4631" />
            </g>
          </g>
          <g
             id="g4633">
            <g
               id="g4635">
              <path
                 inkscape:connector-curvature="0"
                 style="fill:#472b29"
                 d="M 49.5,61 C 49.224,61 49,60.776 49,60.5 l 0,-7 c 0,-0.276 0.224,-0.5 0.5,-0.5 0.276,0 0.5,0.224 0.5,0.5 l 0,7 c 0,0.276 -0.224,0.5 -0.5,0.5 z"
                 id="path4637" />
            </g>
          </g>
          <g
             id="g4639">
            <g
               id="g4641">
              <path
                 inkscape:connector-curvature="0"
                 style="fill:#472b29"
                 d="m 59.5,32 c -0.249,0 -0.464,-0.185 -0.496,-0.438 -0.034,-0.274 0.16,-0.524 0.434,-0.559 l 8,-1 c 0.275,-0.041 0.524,0.16 0.558,0.434 0.034,0.274 -0.16,0.524 -0.434,0.559 l -8,1 C 59.541,31.999 59.52,32 59.5,32 Z"
                 id="path4643" />
            </g>
          </g>
          <g
             id="g4645">
            <g
               id="g4647">
              <path
                 inkscape:connector-curvature="0"
                 style="fill:#472b29"
                 d="m 36.5,45 -7,0 C 29.224,45 29,44.776 29,44.5 29,44.224 29.224,44 29.5,44 l 7,0 c 0.276,0 0.5,0.224 0.5,0.5 0,0.276 -0.224,0.5 -0.5,0.5 z"
                 id="path4649" />
            </g>
          </g>
          <g
             id="g4651">
            <g
               id="g4653">
              <path
                 inkscape:connector-curvature="0"
                 style="fill:#472b29"
                 d="m 36.5,54 -7,0 C 29.224,54 29,53.776 29,53.5 29,53.224 29.224,53 29.5,53 l 7,0 c 0.276,0 0.5,0.224 0.5,0.5 0,0.276 -0.224,0.5 -0.5,0.5 z"
                 id="path4655" />
            </g>
          </g>
          <g
             id="g4657">
            <g
               id="g4659">
              <path
                 inkscape:connector-curvature="0"
                 style="fill:#472b29"
                 d="m 55.167,54.167 c -0.005,0 -0.01,0 -0.015,0 L 49.485,54 C 49.209,53.991 48.992,53.762 49,53.485 49.009,53.209 49.268,52.99 49.515,53 l 5.667,0.167 c 0.276,0.009 0.493,0.238 0.485,0.515 -0.009,0.271 -0.231,0.485 -0.5,0.485 z"
                 id="path4661" />
            </g>
          </g>
          <g
             id="g4663">
            <g
               id="g4665">
              <path
                 inkscape:connector-curvature="0"
                 style="fill:#472b29"
                 d="m 63.584,54.5 c -0.005,0 -0.01,0 -0.015,0 l -5.667,-0.167 c -0.276,-0.009 -0.493,-0.238 -0.485,-0.515 0.008,-0.277 0.283,-0.479 0.515,-0.485 l 5.667,0.167 c 0.276,0.009 0.493,0.238 0.485,0.515 -0.009,0.271 -0.231,0.485 -0.5,0.485 z"
                 id="path4667" />
            </g>
          </g>
          <g
             id="g4669">
            <g
               id="g4671">
              <path
                 inkscape:connector-curvature="0"
                 style="fill:#472b29"
                 d="M 67.5,35 C 67.224,35 67,34.776 67,34.5 l 0,-4 c 0,-0.276 0.224,-0.5 0.5,-0.5 0.276,0 0.5,0.224 0.5,0.5 l 0,4 c 0,0.276 -0.224,0.5 -0.5,0.5 z"
                 id="path4673" />
            </g>
          </g>
        </g>
        <g
           transform="matrix(0.83733405,0,0,0.83733405,232.18835,93.70001)"
           id="g4849"
           style="display:inline">
          <g
             id="g4775">
            <g
               id="g4777">
              <circle
                 style="fill:#78a0cf"
                 cx="13"
                 cy="29"
                 r="2"
                 id="circle4779" />
            </g>
            <g
               id="g4781">
              <circle
                 style="fill:#f1bc19"
                 cx="77"
                 cy="13"
                 r="1"
                 id="circle4783" />
            </g>
            <g
               id="g4785">
              <circle
                 style="fill:#cee1f4"
                 cx="50"
                 cy="50"
                 r="37"
                 id="circle4787" />
            </g>
            <g
               id="g4789">
              <circle
                 style="fill:#f1bc19"
                 cx="83"
                 cy="15"
                 r="4"
                 id="circle4791" />
            </g>
            <g
               id="g4793">
              <circle
                 style="fill:#78a0cf"
                 cx="87"
                 cy="24"
                 r="2"
                 id="circle4795" />
            </g>
            <g
               id="g4797">
              <circle
                 style="fill:#fbcd59"
                 cx="81"
                 cy="76"
                 r="2"
                 id="circle4799" />
            </g>
            <g
               id="g4801">
              <circle
                 style="fill:#fbcd59"
                 cx="15"
                 cy="63"
                 r="4"
                 id="circle4803" />
            </g>
            <g
               id="g4805">
              <circle
                 style="fill:#78a0cf"
                 cx="25"
                 cy="87"
                 r="2"
                 id="circle4807" />
            </g>
            <g
               id="g4809">
              <circle
                 style="fill:#ffffff"
                 cx="18.5"
                 cy="53.5"
                 r="2.5"
                 id="circle4811" />
            </g>
            <g
               id="g4813">
              <circle
                 style="fill:#f1bc19"
                 cx="21"
                 cy="67"
                 r="1"
                 id="circle4815" />
            </g>
            <g
               id="g4817">
              <circle
                 style="fill:#ffffff"
                 cx="80"
                 cy="34"
                 r="1"
                 id="circle4819" />
            </g>
          </g>
          <g
             id="g4821">
            <g
               id="g4823">
              <path
                 inkscape:connector-curvature="0"
                 style="fill:#ea5167"
                 d="M 35.233,47.447 C 36.447,40.381 42.588,35 50,35 c 3.367,0 6.464,1.123 8.968,2.996 l 6.393,-6.885 C 61.178,27.684 55.83,25.625 50,25.625 c -11.942,0 -21.861,8.635 -23.871,20.001 l 9.104,1.821 z"
                 id="path4825" />
            </g>
            <g
               id="g4827">
              <path
                 inkscape:connector-curvature="0"
                 style="fill:#00a698"
                 d="M 58.905,62.068 C 56.414,63.909 53.335,65 50,65 42.158,65 35.732,58.98 35.066,51.311 l -8.909,2.97 C 28.23,65.569 38.113,74.125 50,74.125 c 6.261,0 11.968,-2.374 16.27,-6.27 l -7.365,-5.787 z"
                 id="path4829" />
            </g>
            <g
               id="g4831">
              <path
                 inkscape:connector-curvature="0"
                 style="fill:#48bed8"
                 d="m 68.5,45.5 -4.189,0 -13.811,0 0,9 13.811,0 c -1.073,3.414 -3.333,6.301 -6.296,8.179 l 7.245,6.038 c 5.483,-4.446 8.99,-11.233 8.99,-18.842 0,-1.495 -0.142,-2.955 -0.401,-4.375 l -5.349,0 z"
                 id="path4833" />
            </g>
            <g
               id="g4835">
              <path
                 inkscape:connector-curvature="0"
                 style="fill:#fde751"
                 d="m 35,50 c 0,-2.183 0.477,-4.252 1.316,-6.123 l -7.818,-5.212 c -1.752,3.353 -2.748,7.164 -2.748,11.21 0,3.784 0.868,7.365 2.413,10.556 L 36,55 c -0.366,-1.298 -1,-3.585 -1,-5 z"
                 id="path4837" />
            </g>
          </g>
          <g
             id="g4839">
            <path
               inkscape:connector-curvature="0"
               style="fill:#472b29"
               d="m 50,74.825 c -13.757,0 -24.95,-11.192 -24.95,-24.95 0,-13.758 11.193,-24.95 24.95,-24.95 5.75,0 11.362,2.005 15.804,5.646 l 0.576,0.472 -7.327,7.892 -0.504,-0.377 C 56.051,36.688 53.095,35.7 50,35.7 c -7.885,0 -14.3,6.415 -14.3,14.3 0,7.885 6.415,14.3 14.3,14.3 5.956,0 11.195,-3.618 13.324,-9.1 L 50,55.208 49.992,45.024 74.425,45.016 74.529,45.59 c 0.274,1.503 0.421,2.801 0.421,4.285 0,13.758 -11.192,24.95 -24.95,24.95 z m 0,-48.5 c -12.985,0 -23.55,10.564 -23.55,23.55 0,12.986 10.565,23.55 23.55,23.55 12.985,0 23.55,-10.564 23.55,-23.55 0,-1.211 -0.105,-2.228 -0.3,-3.458 l -22.058,0 0.008,7.383 14.065,0 -0.286,0.91 C 62.914,61.283 56.894,65.7 50,65.7 41.343,65.7 34.3,58.657 34.3,50 c 0,-8.657 7.043,-15.7 15.7,-15.7 3.19,0 6.245,0.955 8.875,2.768 L 64.333,31.19 C 60.238,28.048 55.178,26.325 50,26.325 Z"
               id="path4841" />
          </g>
        </g>
        <g
           transform="matrix(0.74256632,0,0,0.74256632,159.97706,77.625958)"
           id="g4974"
           style="display:inline">
          <g
             id="g4886">
            <g
               id="g4888">
              <g
                 id="g4890">
                <circle
                   style="fill:#ee3e54"
                   cx="13"
                   cy="29"
                   r="2"
                   id="circle4892" />
              </g>
              <g
                 id="g4894">
                <circle
                   style="fill:#f1bc19"
                   cx="77"
                   cy="13"
                   r="1"
                   id="circle4896" />
              </g>
              <g
                 id="g4898">
                <circle
                   style="fill:#fce0a2"
                   cx="50"
                   cy="50"
                   r="37"
                   id="circle4900" />
              </g>
              <g
                 id="g4902">
                <circle
                   style="fill:#f1bc19"
                   cx="83"
                   cy="15"
                   r="4"
                   id="circle4904" />
              </g>
              <g
                 id="g4906">
                <circle
                   style="fill:#ee3e54"
                   cx="87"
                   cy="24"
                   r="2"
                   id="circle4908" />
              </g>
              <g
                 id="g4910">
                <circle
                   style="fill:#fbcd59"
                   cx="81"
                   cy="76"
                   r="2"
                   id="circle4912" />
              </g>
              <g
                 id="g4914">
                <circle
                   style="fill:#fbcd59"
                   cx="15"
                   cy="63"
                   r="4"
                   id="circle4916" />
              </g>
              <g
                 id="g4918">
                <circle
                   style="fill:#ee3e54"
                   cx="25"
                   cy="87"
                   r="2"
                   id="circle4920" />
              </g>
              <g
                 id="g4922">
                <circle
                   style="fill:#ffffff"
                   cx="18.5"
                   cy="53.5"
                   r="2.5"
                   id="circle4924" />
              </g>
              <g
                 id="g4926">
                <circle
                   style="fill:#f1bc19"
                   cx="21"
                   cy="67"
                   r="1"
                   id="circle4928" />
              </g>
              <g
                 id="g4930">
                <circle
                   style="fill:#ffffff"
                   cx="80"
                   cy="34"
                   r="1"
                   id="circle4932" />
              </g>
            </g>
          </g>
          <g
             id="g4934">
            <circle
               style="fill:#78a2d2"
               cx="50"
               cy="49.875"
               r="24.25"
               id="circle4936" />
          </g>
          <g
             id="g4938">
            <path
               inkscape:connector-curvature="0"
               style="fill:#472b29"
               d="m 68.164,59.445 c -0.073,0 -0.148,-0.017 -0.219,-0.051 -0.248,-0.121 -0.351,-0.42 -0.23,-0.668 0.132,-0.271 0.256,-0.543 0.375,-0.818 0.46,-1.068 0.826,-2.186 1.087,-3.318 0.062,-0.27 0.333,-0.437 0.6,-0.375 0.269,0.063 0.437,0.331 0.375,0.6 -0.275,1.191 -0.66,2.366 -1.144,3.49 -0.125,0.289 -0.256,0.575 -0.395,0.859 -0.086,0.178 -0.264,0.281 -0.449,0.281 z"
               id="path4940" />
          </g>
          <g
             id="g4942">
            <path
               inkscape:connector-curvature="0"
               style="fill:#472b29"
               d="m 70.264,52.336 c -0.015,0 -0.03,-10e-4 -0.045,-0.002 -0.275,-0.024 -0.478,-0.268 -0.453,-0.543 0.039,-0.429 0.063,-0.857 0.074,-1.286 0.067,-2.666 -0.39,-5.273 -1.358,-7.752 -0.101,-0.257 0.027,-0.547 0.284,-0.647 0.259,-0.104 0.547,0.025 0.648,0.284 1.017,2.602 1.497,5.341 1.426,8.14 -0.011,0.451 -0.037,0.901 -0.078,1.352 -0.024,0.259 -0.242,0.454 -0.498,0.454 z"
               id="path4944" />
          </g>
          <g
             id="g4946">
            <path
               inkscape:connector-curvature="0"
               style="fill:#472b29"
               d="m 35.107,36.532 c -0.123,0 -0.245,-0.045 -0.341,-0.135 -0.202,-0.188 -0.212,-0.505 -0.024,-0.706 3.399,-3.642 7.999,-5.94 12.95,-6.475 0.277,-0.023 0.521,0.17 0.551,0.443 0.03,0.274 -0.169,0.521 -0.443,0.551 -4.713,0.509 -9.091,2.697 -12.327,6.162 -0.098,0.107 -0.232,0.16 -0.366,0.16 z"
               id="path4948" />
          </g>
          <g
             id="g4950">
            <path
               inkscape:connector-curvature="0"
               style="fill:#472b29"
               d="m 36.138,65.284 c -0.123,0 -0.245,-0.045 -0.341,-0.135 -7.104,-6.632 -8.721,-17.138 -3.934,-25.548 0.137,-0.242 0.442,-0.325 0.682,-0.188 0.24,0.137 0.324,0.442 0.187,0.682 -4.557,8.006 -3.016,18.008 3.748,24.323 0.202,0.188 0.212,0.505 0.024,0.706 -0.099,0.106 -0.233,0.16 -0.366,0.16 z"
               id="path4952" />
          </g>
          <g
             id="g4954">
            <path
               inkscape:connector-curvature="0"
               style="fill:#472b29"
               d="m 58.889,68.769 c -0.186,0 -0.365,-0.104 -0.451,-0.283 -0.12,-0.248 -0.016,-0.547 0.233,-0.667 2.202,-1.062 4.172,-2.515 5.856,-4.316 0.679,-0.729 1.307,-1.511 1.866,-2.325 0.156,-0.227 0.469,-0.285 0.695,-0.129 0.228,0.156 0.286,0.467 0.129,0.695 -0.587,0.855 -1.246,1.677 -1.959,2.44 -1.769,1.894 -3.838,3.42 -6.152,4.535 -0.07,0.034 -0.144,0.05 -0.217,0.05 z"
               id="path4956" />
          </g>
          <g
             id="g4958">
            <path
               inkscape:connector-curvature="0"
               style="fill:#ffffff"
               d="m 46.458,73.5 0,-17 -6.021,0 0,-5.978 6.021,0 0,-6.216 c -0.137,-5.577 4.159,-11.002 14.104,-7.994 l -0.021,5.271 -3.508,-0.022 c -2.699,0 -3.628,0.863 -3.628,2.745 l 0,6.216 7.157,0 -1.258,5.978 -5.899,0 0,17"
               id="path4960" />
            <path
               inkscape:connector-curvature="0"
               style="fill:#472b29"
               d="m 53.905,73.5 -1,0 0,-17.5 5.993,0 1.048,-4.978 -7.041,0 0,-6.716 c 0,-2.244 1.273,-3.245 4.128,-3.245 l 3.01,0.019 0.018,-4.394 c -4.274,-1.22 -7.779,-0.913 -10.154,0.896 -1.942,1.479 -3.018,3.926 -2.949,6.712 l 0,6.729 -6.021,0 0,4.977 6.021,0 0,17.5 -1,0 0,-16.5 -6.021,0 0,-6.978 6.021,0 0,-5.716 c -0.076,-3.099 1.142,-5.845 3.343,-7.521 1.888,-1.438 5.398,-2.768 11.406,-0.952 l 0.357,0.107 -0.024,6.145 -4.009,-0.024 c -2.614,0 -3.125,0.823 -3.125,2.245 l 0,5.716 7.273,0 -1.469,6.978 -5.805,0 0,16.5 z"
               id="path4962" />
          </g>
          <g
             id="g4964">
            <path
               inkscape:connector-curvature="0"
               style="fill:#472b29"
               d="m 50,74.825 c -13.757,0 -24.95,-11.192 -24.95,-24.95 0,-13.758 11.193,-24.95 24.95,-24.95 13.757,0 24.95,11.192 24.95,24.95 0,13.758 -11.193,24.95 -24.95,24.95 z m 0,-48.5 c -12.985,0 -23.55,10.564 -23.55,23.55 0,12.986 10.565,23.55 23.55,23.55 12.985,0 23.55,-10.564 23.55,-23.55 0,-12.986 -10.565,-23.55 -23.55,-23.55 z"
               id="path4966" />
          </g>
        </g>
        <g
           transform="matrix(0.71396754,0,0,0.71396754,335.68807,135.40025)"
           id="g5263"
           style="display:inline">
          <g
             id="g5165">
            <g
               id="g5167">
              <g
                 id="g5169">
                <g
                   id="g5171">
                  <circle
                     style="fill:#f1bc19"
                     cx="77"
                     cy="13"
                     r="1"
                     id="circle5173" />
                </g>
                <g
                   id="g5175">
                  <circle
                     style="fill:#e6edb7"
                     cx="50"
                     cy="50"
                     r="37"
                     id="circle5177" />
                </g>
                <g
                   id="g5179">
                  <circle
                     style="fill:#f1bc19"
                     cx="83"
                     cy="15"
                     r="4"
                     id="circle5181" />
                </g>
                <g
                   id="g5183">
                  <circle
                     style="fill:#88ae45"
                     cx="87"
                     cy="24"
                     r="2"
                     id="circle5185" />
                </g>
                <g
                   id="g5187">
                  <circle
                     style="fill:#fbcd59"
                     cx="81"
                     cy="76"
                     r="2"
                     id="circle5189" />
                </g>
                <g
                   id="g5191">
                  <circle
                     style="fill:#fbcd59"
                     cx="15"
                     cy="63"
                     r="4"
                     id="circle5193" />
                </g>
                <g
                   id="g5195">
                  <circle
                     style="fill:#88ae45"
                     cx="25"
                     cy="87"
                     r="2"
                     id="circle5197" />
                </g>
                <g
                   id="g5199">
                  <circle
                     style="fill:#ffffff"
                     cx="18.5"
                     cy="51.5"
                     r="2.5"
                     id="circle5201" />
                </g>
                <g
                   id="g5203">
                  <circle
                     style="fill:#ffffff"
                     cx="79.5"
                     cy="33.5"
                     r="1.5"
                     id="circle5205" />
                </g>
              </g>
            </g>
          </g>
          <g
             id="g5207">
            <g
               id="g5209">
              <g
                 id="g5211">
                <path
                   inkscape:connector-curvature="0"
                   style="fill:#bebacb"
                   d="m 50.801,31.282 c -0.173,0 -0.344,-0.078 -0.469,-0.216 -0.074,-0.081 -0.194,-0.255 -0.17,-0.503 0.595,-6.197 4.487,-9.087 7.931,-9.725 0.042,-0.008 0.083,-0.012 0.124,-0.012 0.178,0 0.345,0.073 0.471,0.205 0.128,0.137 0.193,0.317 0.182,0.51 -0.205,3.547 -1.252,8.415 -7.953,9.729 -0.039,0.008 -0.078,0.012 -0.116,0.012 l 0,0 z"
                   id="path5213" />
              </g>
              <g
                 id="g5215">
                <path
                   inkscape:connector-curvature="0"
                   style="fill:#472b29"
                   d="m 58.168,21.537 c -0.315,5.292 -2.575,8.082 -7.303,9.032 0.574,-5.736 4.134,-8.423 7.303,-9.032 m 0.048,-1.41 c -0.082,0 -0.166,0.008 -0.251,0.023 -3.888,0.719 -7.891,3.999 -8.5,10.346 -0.077,0.802 0.571,1.485 1.336,1.485 0.082,0 0.166,-0.008 0.25,-0.024 6.847,-1.343 8.277,-6.224 8.517,-10.376 0.046,-0.805 -0.587,-1.454 -1.352,-1.454 l 0,0 z"
                   id="path5217" />
              </g>
            </g>
            <g
               id="g5219">
              <g
                 id="g5221">
                <path
                   inkscape:connector-curvature="0"
                   style="fill:#bebacb"
                   d="m 58.632,71.3 c -1.335,0 -2.546,-0.514 -3.828,-1.057 -1.381,-0.585 -2.809,-1.19 -4.489,-1.19 -1.625,0 -3,0.607 -4.331,1.194 -1.226,0.542 -2.384,1.053 -3.655,1.053 -1.713,0 -3.447,-0.946 -5.459,-2.978 -5.239,-5.292 -7.91,-12.507 -8.164,-22.058 -0.129,-4.862 1.874,-7.968 3.577,-9.717 2.62,-2.691 5.843,-3.646 7.807,-3.646 2.298,0 3.883,0.742 5.416,1.46 1.425,0.667 2.898,1.356 4.809,1.356 1.978,0 3.507,-0.688 4.986,-1.353 1.601,-0.72 3.257,-1.464 5.662,-1.464 2.527,0 5.588,1.308 7.798,3.332 0.203,0.186 0.311,0.45 0.294,0.725 -0.009,0.149 -0.064,0.429 -0.338,0.626 -3.231,2.332 -5.16,6.11 -5.16,10.106 0,4.489 2.413,8.646 6.297,10.847 0.389,0.22 0.549,0.704 0.373,1.126 -1.402,3.343 -3.326,6.171 -5.879,8.647 -2.102,2.042 -3.918,2.991 -5.716,2.991 l 0,0 z"
                   id="path5223" />
              </g>
              <g
                 id="g5225">
                <path
                   inkscape:connector-curvature="0"
                   style="fill:#472b29"
                   d="m 60.963,33.602 c 1.793,0 4.788,0.825 7.325,3.148 0.067,0.062 0.071,0.138 0.069,0.168 -0.004,0.067 -0.035,0.09 -0.049,0.099 -3.412,2.463 -5.449,6.454 -5.449,10.674 0,4.741 2.549,9.131 6.652,11.456 0.083,0.047 0.113,0.148 0.072,0.246 -1.365,3.253 -3.236,6.006 -5.722,8.416 -2.579,2.501 -4.219,2.791 -5.228,2.791 -1.193,0 -2.34,-0.486 -3.555,-1.001 -1.378,-0.584 -2.939,-1.246 -4.762,-1.246 -1.773,0 -3.282,0.666 -4.614,1.254 -1.157,0.511 -2.249,0.993 -3.373,0.993 -0.952,0 -2.503,-0.287 -4.962,-2.771 -5.108,-5.159 -7.712,-12.219 -7.961,-21.583 -0.123,-4.618 1.77,-7.558 3.38,-9.211 2.468,-2.534 5.477,-3.434 7.305,-3.434 2.142,0 3.588,0.677 5.119,1.394 1.494,0.699 3.039,1.423 5.106,1.423 2.128,0 3.727,-0.719 5.273,-1.414 1.604,-0.721 3.119,-1.402 5.374,-1.402 m 0,-1.4 c -4.84,0 -6.776,2.816 -10.648,2.816 l 0,0 c -3.718,0 -5.577,-2.816 -10.225,-2.816 -4.648,0 -12.339,4.473 -12.084,14.082 0.25,9.385 2.789,16.898 8.366,22.531 2.397,2.42 4.29,3.185 5.956,3.185 2.857,0 5.051,-2.247 7.986,-2.247 l 0,0 c 3.057,0 5.342,2.247 8.317,2.247 1.736,0 3.706,-0.764 6.203,-3.186 2.648,-2.568 4.633,-5.53 6.038,-8.88 0.315,-0.75 0.03,-1.607 -0.673,-2.006 -3.545,-2.009 -5.942,-5.84 -5.942,-10.238 0,-3.936 1.923,-7.412 4.869,-9.539 0.803,-0.58 0.838,-1.765 0.106,-2.435 -2.583,-2.365 -5.826,-3.514 -8.269,-3.514 l 0,0 z"
                   id="path5227" />
              </g>
            </g>
            <g
               id="g5229">
              <path
                 inkscape:connector-curvature="0"
                 style="fill:#d6d3c5"
                 d="m 30.451,51.489 c 3.808,-4.765 6.664,-3.812 18.088,-4.765 0.787,-0.066 1.557,-0.159 2.309,-0.276 5.063,-0.787 9.285,-2.642 12.252,-4.306 0.507,-0.284 0.977,-0.563 1.408,-0.829 0.928,-1.682 2.205,-3.172 3.797,-4.322 0.013,-0.009 0.031,-0.027 0.036,-0.071 -0.008,-0.035 -0.019,-0.069 -0.03,-0.103 -0.009,-0.014 -0.013,-0.028 -0.028,-0.042 -2.535,-2.322 -5.528,-3.146 -7.321,-3.146 -2.254,0 -3.77,0.681 -5.374,1.403 -1.546,0.695 -3.145,1.414 -5.274,1.414 -2.067,0 -3.612,-0.723 -5.107,-1.423 -1.531,-0.717 -2.976,-1.394 -5.118,-1.394 -1.842,0 -4.871,0.91 -7.342,3.473 -1.586,1.645 -3.451,4.567 -3.329,9.143 0.054,2.024 0.225,3.933 0.5,5.745 0.174,-0.115 0.351,-0.274 0.533,-0.501 z"
                 id="path5231" />
            </g>
            <g
               id="g5233">
              <path
                 inkscape:connector-curvature="0"
                 style="fill:#472b29"
                 d="m 60.162,43.881 c -0.095,0 -0.186,-0.055 -0.228,-0.146 -0.057,-0.126 -10e-4,-0.274 0.124,-0.331 0.668,-0.304 1.338,-0.631 1.993,-0.975 0.121,-0.063 0.274,-0.017 0.337,0.105 0.064,0.122 0.017,0.273 -0.105,0.338 -0.663,0.348 -1.342,0.68 -2.019,0.986 -0.032,0.016 -0.067,0.023 -0.102,0.023 z"
                 id="path5235" />
            </g>
            <g
               id="g5237">
              <path
                 inkscape:connector-curvature="0"
                 style="fill:#472b29"
                 d="m 52.991,46.222 c -0.116,0 -0.22,-0.081 -0.244,-0.199 -0.028,-0.135 0.059,-0.268 0.194,-0.296 0.457,-0.095 0.906,-0.197 1.348,-0.308 1.23,-0.309 2.474,-0.692 3.694,-1.142 0.129,-0.047 0.273,0.019 0.321,0.148 0.048,0.129 -0.019,0.272 -0.148,0.32 -1.238,0.456 -2.498,0.846 -3.746,1.157 -0.448,0.112 -0.904,0.217 -1.368,0.313 -0.017,0.005 -0.034,0.007 -0.051,0.007 z"
                 id="path5239" />
            </g>
            <g
               id="g5241">
              <path
                 inkscape:connector-curvature="0"
                 style="fill:#472b29"
                 d="m 29.595,52.407 c -0.105,0 -0.203,-0.066 -0.237,-0.172 -0.043,-0.131 0.028,-0.272 0.159,-0.315 0.243,-0.08 0.492,-0.278 0.739,-0.588 1.106,-1.383 2.115,-2.275 3.272,-2.895 2.145,-1.147 4.778,-1.304 9.142,-1.562 1.682,-0.1 3.589,-0.213 5.849,-0.401 0.711,-0.06 1.436,-0.145 2.154,-0.252 0.137,-0.016 0.264,0.073 0.284,0.21 0.02,0.137 -0.073,0.264 -0.21,0.284 -0.729,0.109 -1.465,0.196 -2.187,0.256 -2.266,0.189 -4.176,0.303 -5.861,0.402 -4.294,0.254 -6.887,0.407 -8.935,1.504 -1.094,0.585 -2.056,1.438 -3.117,2.766 -0.313,0.392 -0.631,0.637 -0.973,0.75 -0.027,0.009 -0.053,0.013 -0.079,0.013 z"
                 id="path5243" />
            </g>
            <g
               id="g5245">
              <path
                 inkscape:connector-curvature="0"
                 style="fill:#472b29"
                 d="m 39.618,64.853 c -0.153,0 -0.304,-0.069 -0.402,-0.202 -2.703,-3.64 -4.836,-8.755 -5.706,-13.684 -0.048,-0.271 0.133,-0.531 0.405,-0.579 0.271,-0.052 0.531,0.133 0.579,0.405 0.845,4.783 2.91,9.74 5.524,13.262 0.165,0.222 0.119,0.534 -0.103,0.699 -0.089,0.066 -0.194,0.099 -0.297,0.099 z"
                 id="path5247" />
            </g>
            <g
               id="g5249">
              <path
                 inkscape:connector-curvature="0"
                 style="fill:#472b29"
                 d="m 33.567,47.104 c -0.271,0 -0.493,-0.216 -0.5,-0.488 C 33.062,46.411 33.06,46.205 33.06,46 c 0,-0.842 0.083,-1.65 0.245,-2.404 0.14,-0.644 0.34,-1.258 0.597,-1.827 0.158,-0.352 0.342,-0.694 0.546,-1.017 0.147,-0.234 0.456,-0.302 0.69,-0.155 0.233,0.148 0.303,0.457 0.155,0.69 -0.179,0.282 -0.34,0.583 -0.479,0.893 -0.228,0.505 -0.407,1.053 -0.531,1.627 -0.148,0.685 -0.223,1.423 -0.223,2.193 0,0.197 0.002,0.396 0.007,0.593 0.006,0.275 -0.212,0.505 -0.488,0.512 -0.004,-10e-4 -0.008,-10e-4 -0.012,-10e-4 z"
                 id="path5251" />
            </g>
            <g
               id="g5253">
              <path
                 inkscape:connector-curvature="0"
                 style="fill:#472b29"
                 d="m 36.813,39.401 c -0.153,0 -0.304,-0.07 -0.402,-0.202 -0.165,-0.223 -0.118,-0.535 0.104,-0.7 0.855,-0.633 1.82,-1.081 2.868,-1.333 0.267,-0.058 0.539,0.102 0.603,0.369 0.064,0.269 -0.101,0.539 -0.37,0.604 -0.917,0.22 -1.76,0.612 -2.506,1.165 -0.089,0.065 -0.194,0.097 -0.297,0.097 z"
                 id="path5255" />
            </g>
          </g>
        </g>
        <g
           transform="matrix(0.81653164,0,0,0.81653164,256.4774,169.00409)"
           id="g5402"
           style="display:inline">
          <g
             id="g5312">
            <g
               id="g5314">
              <g
                 id="g5316">
                <g
                   id="g5318">
                  <circle
                     style="fill:#f1bc19"
                     cx="77"
                     cy="13"
                     r="1"
                     id="circle5320" />
                </g>
                <g
                   id="g5322">
                  <circle
                     style="fill:#e4e4f9"
                     cx="50"
                     cy="50"
                     r="37"
                     id="circle5324" />
                </g>
                <g
                   id="g5326">
                  <circle
                     style="fill:#f1bc19"
                     cx="83"
                     cy="15"
                     r="4"
                     id="circle5328" />
                </g>
                <g
                   id="g5330">
                  <circle
                     style="fill:#8889b9"
                     cx="87"
                     cy="24"
                     r="2"
                     id="circle5332" />
                </g>
                <g
                   id="g5334">
                  <circle
                     style="fill:#fbcd59"
                     cx="81"
                     cy="76"
                     r="2"
                     id="circle5336" />
                </g>
                <g
                   id="g5338">
                  <circle
                     style="fill:#fbcd59"
                     cx="15"
                     cy="63"
                     r="4"
                     id="circle5340" />
                </g>
                <g
                   id="g5342">
                  <circle
                     style="fill:#8889b9"
                     cx="25"
                     cy="87"
                     r="2"
                     id="circle5344" />
                </g>
                <g
                   id="g5346">
                  <circle
                     style="fill:#ffffff"
                     cx="18.5"
                     cy="51.5"
                     r="2.5"
                     id="circle5348" />
                </g>
                <g
                   id="g5350">
                  <circle
                     style="fill:#ffffff"
                     cx="79.5"
                     cy="33.5"
                     r="1.5"
                     id="circle5352" />
                </g>
              </g>
            </g>
          </g>
          <g
             id="g5354">
            <circle
               style="fill:#a3a3cd"
               cx="50"
               cy="49.875"
               r="24.25"
               id="circle5356" />
            <path
               inkscape:connector-curvature="0"
               style="fill:#472b29"
               d="m 50,74.825 c -13.757,0 -24.95,-11.192 -24.95,-24.95 0,-13.758 11.193,-24.95 24.95,-24.95 13.757,0 24.95,11.192 24.95,24.95 0,13.758 -11.193,24.95 -24.95,24.95 z m 0,-48.5 c -12.985,0 -23.55,10.564 -23.55,23.55 0,12.986 10.565,23.55 23.55,23.55 12.985,0 23.55,-10.564 23.55,-23.55 0,-12.986 -10.565,-23.55 -23.55,-23.55 z"
               id="path5358" />
          </g>
          <g
             id="g5360">
            <circle
               style="fill:#565fa1"
               cx="50"
               cy="49.667"
               r="20.5"
               id="circle5362" />
          </g>
          <g
             id="g5364">
            <path
               inkscape:connector-curvature="0"
               style="fill:#472b29"
               d="m 69.424,44.625 c -0.214,0 -0.412,-0.139 -0.478,-0.354 -0.088,-0.287 -0.183,-0.571 -0.284,-0.853 -0.392,-1.094 -0.886,-2.159 -1.47,-3.169 -0.139,-0.238 -0.057,-0.545 0.182,-0.683 0.239,-0.141 0.545,-0.057 0.683,0.183 0.614,1.061 1.134,2.182 1.546,3.331 0.106,0.297 0.206,0.595 0.298,0.897 0.081,0.264 -0.067,0.544 -0.332,0.625 -0.048,0.016 -0.097,0.023 -0.145,0.023 z"
               id="path5366" />
          </g>
          <g
             id="g5368">
            <path
               inkscape:connector-curvature="0"
               style="fill:#472b29"
               d="m 50,70.75 c -11.511,0 -20.875,-9.337 -20.875,-20.813 0,-11.476 9.364,-20.812 20.875,-20.812 5.975,0 11.674,2.56 15.636,7.023 0.299,0.337 0.588,0.685 0.865,1.041 0.169,0.218 0.13,0.531 -0.087,0.701 -0.218,0.171 -0.532,0.131 -0.702,-0.088 -0.264,-0.339 -0.54,-0.669 -0.824,-0.99 -3.772,-4.25 -9.199,-6.688 -14.888,-6.688 -10.959,0 -19.875,8.888 -19.875,19.813 0,10.925 8.916,19.813 19.875,19.813 10.959,0 19.875,-8.888 19.875,-19.813 0,-0.995 -0.075,-1.996 -0.222,-2.973 -0.041,-0.272 0.147,-0.527 0.42,-0.568 0.278,-0.045 0.528,0.147 0.569,0.42 0.154,1.025 0.233,2.076 0.233,3.121 0,11.476 -9.364,20.813 -20.875,20.813 z"
               id="path5370" />
          </g>
          <g
             id="g5372">
            <path
               inkscape:connector-curvature="0"
               style="fill:#fefdef"
               d="m 61.496,42.088 c 0.365,-1.671 0.206,-3.743 -0.486,-5.818 -3.622,0 -6.339,2.716 -6.339,2.716 0,0 0.016,0.018 0.02,0.023 C 54.627,39.008 54.565,39 54.5,39 l -9,0 c -0.043,0 -0.085,0.006 -0.128,0.006 0.003,-0.004 0.017,-0.02 0.017,-0.02 0,0 -2.717,-2.716 -6.339,-2.716 -0.684,2.053 -0.85,4.104 -0.5,5.767 C 36.973,43.732 36,46 36,48.5 c 0,5.247 4.253,9.5 9.5,9.5 l 1.073,0 c -1.304,0.709 -2.246,1.979 -2.493,3.498 -1.72,0.232 -3.979,0.18 -5.028,-1.394 -1.811,-2.717 -2.717,-2.717 -3.622,-2.717 -0.905,0 -0.906,0.906 0,1.811 0.906,0.906 0.906,0.906 1.811,2.717 0.772,1.543 2.812,3.298 6.76,2.663 l 0,3.523 c 0,0.447 0.079,0.871 0.191,1.282 2.425,0.577 6.502,1.061 11.665,-0.151 C 55.943,68.868 56,68.493 56,68.102 l 0,-5.816 C 56,60.428 54.953,58.83 53.427,58 l 1.073,0 c 5.247,0 9.5,-4.253 9.5,-9.5 0,-2.475 -0.954,-4.721 -2.504,-6.412 z"
               id="path5374" />
            <path
               inkscape:connector-curvature="0"
               style="fill:#472b29"
               d="m 49.532,70.486 c -2.23,0 -4.075,-0.287 -5.457,-0.616 C 43.897,69.828 43.756,69.691 43.708,69.515 43.566,68.993 43.5,68.543 43.5,68.102 l 0,-2.952 c -4.563,0.514 -6.279,-2.154 -6.707,-3.011 -0.87,-1.739 -0.87,-1.739 -1.717,-2.587 -0.701,-0.701 -0.979,-1.458 -0.745,-2.023 0.169,-0.408 0.569,-0.642 1.098,-0.642 1.217,0 2.219,0.211 4.038,2.939 0.839,1.258 2.676,1.379 4.193,1.218 0.23,-0.978 0.724,-1.855 1.423,-2.554 C 39.762,58.272 35.5,53.875 35.5,48.5 c 0,-2.442 0.891,-4.78 2.513,-6.613 -0.306,-1.722 -0.108,-3.761 0.564,-5.775 0.068,-0.204 0.259,-0.342 0.474,-0.342 3.357,0 5.931,2.16 6.552,2.73 l 8.854,0 c 0.621,-0.57 3.195,-2.73 6.552,-2.73 0.215,0 0.406,0.138 0.474,0.342 0.679,2.037 0.872,4.096 0.551,5.83 1.591,1.826 2.465,4.146 2.465,6.559 0,5.375 -4.263,9.773 -9.585,9.991 1.001,0.997 1.585,2.354 1.585,3.794 l 0,5.816 c 0,0.392 -0.052,0.8 -0.158,1.246 -0.043,0.185 -0.188,0.328 -0.372,0.371 -2.387,0.561 -4.55,0.767 -6.437,0.767 z m -4.93,-1.521 c 2.412,0.537 6.153,0.9 10.83,-0.148 0.045,-0.253 0.068,-0.489 0.068,-0.715 l 0,-5.816 c 0,-1.597 -0.886,-3.07 -2.312,-3.846 -0.201,-0.109 -0.302,-0.341 -0.246,-0.563 0.056,-0.222 0.256,-0.377 0.484,-0.377 l 1.074,0 c 4.962,0 9,-4.037 9,-9 0,-2.247 -0.843,-4.404 -2.373,-6.074 -0.11,-0.12 -0.154,-0.286 -0.12,-0.444 0.331,-1.517 0.202,-3.352 -0.36,-5.202 -2.87,0.153 -5.098,2.074 -5.542,2.484 -0.091,0.151 -0.245,0.246 -0.429,0.246 -0.007,0 -0.096,-0.006 -0.103,-0.006 L 45.5,39.5 c -0.152,0 -0.332,-0.067 -0.442,-0.181 l -0.021,0.021 c -0.025,-0.024 -2.438,-2.39 -5.623,-2.561 -0.557,1.831 -0.69,3.649 -0.373,5.154 0.034,0.159 -0.013,0.325 -0.124,0.444 -1.559,1.675 -2.417,3.85 -2.417,6.123 0,4.963 4.038,9 9,9 l 1.073,0 c 0.229,0 0.428,0.155 0.484,0.377 0.057,0.222 -0.044,0.453 -0.246,0.563 -1.205,0.654 -2.021,1.799 -2.238,3.139 -0.036,0.218 -0.208,0.386 -0.427,0.415 -2.664,0.358 -4.568,-0.198 -5.511,-1.611 -1.663,-2.494 -2.412,-2.494 -3.206,-2.494 -0.137,0 -0.18,0.032 -0.181,0.032 -0.025,0.064 0.043,0.435 0.534,0.926 0.963,0.963 0.998,1.033 1.905,2.847 0.369,0.736 1.911,3.093 6.233,2.392 0.147,-0.021 0.292,0.019 0.404,0.113 0.111,0.096 0.176,0.234 0.176,0.381 l 0,3.523 c 0,0.269 0.033,0.548 0.102,0.862 z"
               id="path5376" />
          </g>
          <g
             id="g5378">
            <path
               inkscape:connector-curvature="0"
               style="fill:#fefdef"
               d="m 60.437,51.362 c -0.9,1.994 -2.876,3.652 -6.354,3.93"
               id="path5380" />
            <path
               inkscape:connector-curvature="0"
               style="fill:#472b29"
               d="m 54.083,55.542 c -0.129,0 -0.238,-0.1 -0.249,-0.23 -0.011,-0.138 0.091,-0.258 0.229,-0.269 3.805,-0.305 5.442,-2.227 6.146,-3.784 0.058,-0.127 0.205,-0.183 0.331,-0.125 0.125,0.057 0.182,0.204 0.125,0.33 -1.073,2.377 -3.403,3.824 -6.562,4.077 -0.006,0.001 -0.013,0.001 -0.02,0.001 z"
               id="path5382" />
          </g>
          <g
             id="g5384">
            <path
               inkscape:connector-curvature="0"
               style="fill:#fefdef"
               d="m 60.959,47.41 c 0.111,0.753 0.109,1.552 -0.03,2.342"
               id="path5386" />
            <path
               inkscape:connector-curvature="0"
               style="fill:#472b29"
               d="m 60.93,50.002 c -0.015,0 -0.029,-0.001 -0.044,-0.004 -0.136,-0.023 -0.227,-0.153 -0.203,-0.289 0.129,-0.734 0.139,-1.517 0.029,-2.263 -0.021,-0.136 0.074,-0.264 0.21,-0.283 0.137,-0.02 0.264,0.073 0.284,0.211 0.12,0.809 0.109,1.624 -0.031,2.421 -0.02,0.122 -0.126,0.207 -0.245,0.207 z"
               id="path5388" />
          </g>
          <g
             id="g5390">
            <path
               inkscape:connector-curvature="0"
               style="fill:#fefdef"
               d="m 59.083,43.875 c 0.633,0.451 1.146,1.179 1.488,2.055"
               id="path5392" />
            <path
               inkscape:connector-curvature="0"
               style="fill:#472b29"
               d="m 60.571,46.181 c -0.1,0 -0.194,-0.061 -0.233,-0.159 -0.334,-0.856 -0.818,-1.528 -1.4,-1.942 -0.112,-0.08 -0.139,-0.236 -0.059,-0.349 0.081,-0.113 0.236,-0.138 0.349,-0.06 0.662,0.472 1.207,1.222 1.576,2.169 0.05,0.129 -0.014,0.273 -0.142,0.324 -0.03,0.011 -0.06,0.017 -0.091,0.017 z"
               id="path5394" />
          </g>
        </g>
      </g>
    </g>
  </g>
</svg>
