<?xml version="1.0" encoding="iso-8859-1"?>
<!-- Generator: Adobe Illustrator 22.1.0, SVG Export Plug-In . SVG Version: 6.00 Build 0)  -->
<svg xmlns="http://www.w3.org/2000/svg" xmlns:xlink="http://www.w3.org/1999/xlink" version="1.1" id="Layer_1" x="0px" y="0px" viewBox="0 0 64 64" style="enable-background:new 0 0 64 64;" xml:space="preserve" width="128px" height="128px">
<g>
	<path style="fill:#85CBF8;" d="M32,4c-9.927,0-13,4.709-13,7.764V17h13v4H11.764C7.818,21,4,23.855,4,32s3.818,11,7.764,11h7.509   v-5.909c0-2.8,2.291-5.091,5.091-5.091h15.273c2.8,0,5.364-2.291,5.364-5.091V11.764C45,8.582,41.927,4,32,4z"/>
</g>
<g>
	<path style="fill:#F9DD8F;" d="M32,60c9.927,0,12.727-4.709,12.727-7.764V47H32v-4h20.236C56.182,43,60,40.145,60,32   s-3.818-11-7.764-11H45v5.909c0,2.8-2.564,5.091-5.364,5.091H24.364C21.564,32,19,34.291,19,37.091v15.145   C19,55.291,22.073,60,32,60z"/>
</g>
<g>
	<circle style="fill:#8D6C9E;" cx="26.5" cy="11.5" r="2.5"/>
</g>
<g>
	<circle style="fill:#8D6C9E;" cx="38.5" cy="52.5" r="2.5"/>
</g>
<g>
	<path style="fill:#ACE3FF;" d="M4,32c0,8.145,3.818,11,7.764,11h6.299c0-2.761-2.239-5-5-5h-1.299C9.726,38,9,34.9,9,32   s0.726-6,2.754-6l16.283,0.031c0.003,0,0.007,0,0.01,0c2.757,0,4.995-2.232,5-4.99c0-0.014-0.004-0.027-0.004-0.041H11.764   C7.818,21,4,23.855,4,32z"/>
</g>
<g>
	<path style="fill:#EFC88E;" d="M60.047,32c0-8.145-3.818-11-7.764-11h-6.299c0,2.761,2.239,5,5,5h1.299c2.038,0,2.764,3.1,2.764,6   s-0.726,6-2.754,6L36.01,37.969c-0.003,0-0.007,0-0.01,0c-2.757,0-4.995,2.232-5,4.99c0,0.014,0.004,0.027,0.004,0.041h21.279   C56.229,43,60.047,40.145,60.047,32z"/>
</g>
<g>
	<path style="fill:#8D6C9F;" d="M20,44h-8.236C9.708,44,3,43.135,3,32s6.708-12,8.764-12H31v-2H18v-6.236C18,8.732,20.926,3,32,3   c11.052,0,14,5.509,14,8.764v15.146C46,30.211,43.086,33,39.637,33H24.364C22.039,33,20,34.912,20,37.091V44z M11.764,22   C7.465,22,5,25.645,5,32s2.465,10,6.764,10H18v-4.909C18,33.789,20.914,31,24.364,31h15.273C41.961,31,44,29.088,44,26.909V11.764   C44,9.251,41.473,5,32,5c-9.492,0-12,4.424-12,6.764V16h13v6H11.764z"/>
</g>
<g>
	<path style="fill:#8D6C9E;" d="M32,61c-11.074,0-14-5.732-14-8.764V37.091C18,33.789,20.914,31,24.364,31h15.273   C41.961,31,44,29.088,44,26.909V20h8.236C54.292,20,61,20.865,61,32s-6.708,12-8.764,12H33v2h13v6.236C46,55.268,43.074,61,32,61z    M24.364,33C22.039,33,20,34.912,20,37.091v15.146C20,54.576,22.508,59,32,59s12-4.424,12-6.764V48H31v-6h21.236   C56.535,42,59,38.355,59,32s-2.465-10-6.764-10H46v4.909C46,30.211,43.086,33,39.637,33H24.364z"/>
</g>
<g>
	<g>
		<g>
			<path style="fill:#8D6C9F;" d="M37.652,40c-0.553,0-1-0.448-1-1v-2c0-0.552,0.447-1,1-1s1,0.448,1,1v2     C38.652,39.552,38.205,40,37.652,40z"/>
		</g>
	</g>
	<g>
		<g>
			<path style="fill:#8D6C9F;" d="M42.218,40c-0.553,0-1-0.448-1-1v-2c0-0.552,0.447-1,1-1s1,0.448,1,1v2     C43.218,39.552,42.771,40,42.218,40z"/>
		</g>
	</g>
	<g>
		<g>
			<path style="fill:#8D6C9F;" d="M46.782,40c-0.553,0-1-0.448-1-1v-2c0-0.552,0.447-1,1-1s1,0.448,1,1v2     C47.782,39.552,47.335,40,46.782,40z"/>
		</g>
	</g>
	<g>
		<g>
			<path style="fill:#8D6C9F;" d="M51.348,40c-0.553,0-1-0.448-1-1v-2c0-0.552,0.447-1,1-1s1,0.448,1,1v2     C52.348,39.552,51.9,40,51.348,40z"/>
		</g>
	</g>
</g>
<g>
	<g>
		<g>
			<path style="fill:#8D6C9F;" d="M15.652,28.083c-0.552,0-1-0.448-1-1v-2c0-0.552,0.448-1,1-1s1,0.448,1,1v2     C16.652,27.636,16.205,28.083,15.652,28.083z"/>
		</g>
	</g>
	<g>
		<g>
			<path style="fill:#8D6C9F;" d="M20.217,28.083c-0.552,0-1-0.448-1-1v-2c0-0.552,0.448-1,1-1s1,0.448,1,1v2     C21.217,27.636,20.77,28.083,20.217,28.083z"/>
		</g>
	</g>
	<g>
		<g>
			<path style="fill:#8D6C9F;" d="M24.783,28.083c-0.552,0-1-0.448-1-1v-2c0-0.552,0.448-1,1-1s1,0.448,1,1v2     C25.783,27.636,25.335,28.083,24.783,28.083z"/>
		</g>
	</g>
	<g>
		<g>
			<path style="fill:#8D6C9F;" d="M29.348,28.083c-0.552,0-1-0.448-1-1v-2c0-0.552,0.448-1,1-1s1,0.448,1,1v2     C30.348,27.636,29.9,28.083,29.348,28.083z"/>
		</g>
	</g>
</g>
</svg>
